<?xml version="1.0" encoding="UTF-8" standalone="no"?>
<!DOCTYPE svg PUBLIC "-//W3C//DTD SVG 1.1//EN"
 "http://www.w3.org/Graphics/SVG/1.1/DTD/svg11.dtd">
<!-- Generated by graphviz version 2.40.1 (20161225.0304)
 -->
<!-- Title: G Pages: 1 -->
<svg width="531pt" height="174pt"
 viewBox="0.00 0.00 531.00 174.00" xmlns="http://www.w3.org/2000/svg" xmlns:xlink="http://www.w3.org/1999/xlink">
<g id="graph0" class="graph" transform="scale(1 1) rotate(0) translate(4 170)">
<title>G</title>
<polygon fill="#ffffff" stroke="transparent" points="-4,4 -4,-170 527,-170 527,4 -4,4"/>
<!-- 0 -->
<g id="node1" class="node">
<title>0</title>
<ellipse fill="none" stroke="#000000" cx="27" cy="-22" rx="27" ry="18"/>
<text text-anchor="middle" x="27" y="-17.8" font-family="Times,serif" font-size="14.00" fill="#000000">0</text>
</g>
<!-- 1 -->
<g id="node2" class="node">
<title>1</title>
<ellipse fill="none" stroke="#000000" cx="118" cy="-69" rx="27" ry="18"/>
<text text-anchor="middle" x="118" y="-64.8" font-family="Times,serif" font-size="14.00" fill="#000000">1</text>
</g>
<!-- 0&#45;&gt;1 -->
<g id="edge1" class="edge">
<title>0&#45;&gt;1</title>
<path fill="none" stroke="#000000" d="M48.5657,-33.1383C60.2386,-39.1672 74.8496,-46.7135 87.6533,-53.3264"/>
<polygon fill="#000000" stroke="#000000" points="86.098,-56.4624 96.5891,-57.9416 89.3103,-50.2429 86.098,-56.4624"/>
</g>
<!-- 7 -->
<g id="node8" class="node">
<title>7</title>
<ellipse fill="none" stroke="#000000" cx="492" cy="-22" rx="27" ry="18"/>
<ellipse fill="none" stroke="#000000" cx="492" cy="-22" rx="31" ry="22"/>
<text text-anchor="middle" x="492" y="-17.8" font-family="Times,serif" font-size="14.00" fill="#000000">7</text>
</g>
<!-- 0&#45;&gt;7 -->
<g id="edge2" class="edge">
<title>0&#45;&gt;7</title>
<path fill="none" stroke="#000000" d="M53.1621,-16.7017C71.2837,-13.4871 96.0092,-10 118,-10 118,-10 118,-10 397,-10 415.0346,-10 434.8442,-12.1549 451.6858,-14.6384"/>
<polygon fill="#000000" stroke="#000000" points="451.3256,-18.1246 461.7462,-16.2109 452.4066,-11.2085 451.3256,-18.1246"/>
</g>
<!-- 2 -->
<g id="node3" class="node">
<title>2</title>
<ellipse fill="none" stroke="#000000" cx="209" cy="-148" rx="27" ry="18"/>
<text text-anchor="middle" x="209" y="-143.8" font-family="Times,serif" font-size="14.00" fill="#000000">2</text>
</g>
<!-- 1&#45;&gt;2 -->
<g id="edge3" class="edge">
<title>1&#45;&gt;2</title>
<path fill="none" stroke="#000000" d="M134.6908,-83.4898C148.6729,-95.6281 168.8209,-113.1192 184.6109,-126.827"/>
<polygon fill="#000000" stroke="#000000" points="182.5691,-129.6894 192.415,-133.602 187.1581,-124.4034 182.5691,-129.6894"/>
</g>
<!-- 5 -->
<g id="node6" class="node">
<title>5</title>
<ellipse fill="none" stroke="#000000" cx="209" cy="-94" rx="27" ry="18"/>
<text text-anchor="middle" x="209" y="-89.8" font-family="Times,serif" font-size="14.00" fill="#000000">5</text>
</g>
<!-- 1&#45;&gt;5 -->
<g id="edge4" class="edge">
<title>1&#45;&gt;5</title>
<path fill="none" stroke="#000000" d="M143.3486,-75.9639C152.8148,-78.5645 163.7394,-81.5658 173.9269,-84.3645"/>
<polygon fill="#000000" stroke="#000000" points="173.2174,-87.7992 183.7874,-87.0735 175.0718,-81.0493 173.2174,-87.7992"/>
</g>
<!-- 3 -->
<g id="node4" class="node">
<title>3</title>
<ellipse fill="none" stroke="#000000" cx="306" cy="-148" rx="27" ry="18"/>
<text text-anchor="middle" x="306" y="-143.8" font-family="Times,serif" font-size="14.00" fill="#000000">3</text>
</g>
<!-- 2&#45;&gt;3 -->
<g id="edge5" class="edge">
<title>2&#45;&gt;3</title>
<path fill="none" stroke="#000000" d="M236.0199,-148C246.1304,-148 257.8016,-148 268.6794,-148"/>
<polygon fill="#000000" stroke="#000000" points="268.7886,-151.5001 278.7886,-148 268.7885,-144.5001 268.7886,-151.5001"/>
<text text-anchor="middle" x="257.5" y="-152.2" font-family="Times,serif" font-size="14.00" fill="#000000">0</text>
</g>
<!-- 4 -->
<g id="node5" class="node">
<title>4</title>
<ellipse fill="none" stroke="#000000" cx="397" cy="-64" rx="27" ry="18"/>
<text text-anchor="middle" x="397" y="-59.8" font-family="Times,serif" font-size="14.00" fill="#000000">4</text>
</g>
<!-- 3&#45;&gt;4 -->
<g id="edge6" class="edge">
<title>3&#45;&gt;4</title>
<path fill="none" stroke="#000000" d="M321.851,-133.3683C336.1171,-120.1996 357.271,-100.6729 373.5037,-85.6889"/>
<polygon fill="#000000" stroke="#000000" points="376.0513,-88.1005 381.0253,-78.7459 371.3033,-82.9569 376.0513,-88.1005"/>
</g>
<!-- 4&#45;&gt;1 -->
<g id="edge7" class="edge">
<title>4&#45;&gt;1</title>
<path fill="none" stroke="#000000" d="M369.8455,-64.2285C329.0572,-64.6058 249.5501,-65.4734 182,-67 173.2931,-67.1968 163.9215,-67.4604 155.1074,-67.7316"/>
<polygon fill="#000000" stroke="#000000" points="154.9736,-64.234 145.0898,-68.0498 155.1959,-71.2304 154.9736,-64.234"/>
</g>
<!-- 4&#45;&gt;7 -->
<g id="edge8" class="edge">
<title>4&#45;&gt;7</title>
<path fill="none" stroke="#000000" d="M419.5137,-54.0466C430.532,-49.1753 444.0579,-43.1955 456.4294,-37.726"/>
<polygon fill="#000000" stroke="#000000" points="457.8734,-40.9144 465.6042,-33.6697 455.0429,-34.5122 457.8734,-40.9144"/>
</g>
<!-- 6 -->
<g id="node7" class="node">
<title>6</title>
<ellipse fill="none" stroke="#000000" cx="306" cy="-94" rx="27" ry="18"/>
<text text-anchor="middle" x="306" y="-89.8" font-family="Times,serif" font-size="14.00" fill="#000000">6</text>
</g>
<!-- 5&#45;&gt;6 -->
<g id="edge9" class="edge">
<title>5&#45;&gt;6</title>
<path fill="none" stroke="#000000" d="M236.0199,-94C246.1304,-94 257.8016,-94 268.6794,-94"/>
<polygon fill="#000000" stroke="#000000" points="268.7886,-97.5001 278.7886,-94 268.7885,-90.5001 268.7886,-97.5001"/>
<text text-anchor="middle" x="257.5" y="-98.2" font-family="Times,serif" font-size="14.00" fill="#000000">1</text>
</g>
<!-- 6&#45;&gt;4 -->
<g id="edge10" class="edge">
<title>6&#45;&gt;4</title>
<path fill="none" stroke="#000000" d="M330.3863,-85.9606C340.3827,-82.665 352.1261,-78.7936 362.946,-75.2266"/>
<polygon fill="#000000" stroke="#000000" points="364.145,-78.5167 372.5464,-72.0616 361.9533,-71.8686 364.145,-78.5167"/>
</g>
</g>
</svg>
