<?xml version="1.0" encoding="UTF-8" standalone="no"?>
<!DOCTYPE svg PUBLIC "-//W3C//DTD SVG 1.1//EN"
 "http://www.w3.org/Graphics/SVG/1.1/DTD/svg11.dtd">
<!-- Generated by graphviz version 2.40.1 (20161225.0304)
 -->
<!-- Title: G Pages: 1 -->
<svg width="907pt" height="180pt"
 viewBox="0.00 0.00 907.00 180.00" xmlns="http://www.w3.org/2000/svg" xmlns:xlink="http://www.w3.org/1999/xlink">
<g id="graph0" class="graph" transform="scale(1 1) rotate(0) translate(4 176)">
<title>G</title>
<polygon fill="#ffffff" stroke="transparent" points="-4,4 -4,-176 903,-176 903,4 -4,4"/>
<!-- 0 -->
<g id="node1" class="node">
<title>0</title>
<ellipse fill="none" stroke="#000000" cx="27" cy="-22" rx="27" ry="18"/>
<text text-anchor="middle" x="27" y="-17.8" font-family="Times,serif" font-size="14.00" fill="#000000">0</text>
</g>
<!-- 1 -->
<g id="node2" class="node">
<title>1</title>
<ellipse fill="none" stroke="#000000" cx="118" cy="-56" rx="27" ry="18"/>
<text text-anchor="middle" x="118" y="-51.8" font-family="Times,serif" font-size="14.00" fill="#000000">1</text>
</g>
<!-- 0&#45;&gt;1 -->
<g id="edge1" class="edge">
<title>0&#45;&gt;1</title>
<path fill="none" stroke="#000000" d="M50.9092,-30.9331C61.2543,-34.7983 73.538,-39.3878 84.7496,-43.5768"/>
<polygon fill="#000000" stroke="#000000" points="83.658,-46.9052 94.2505,-47.1266 86.108,-40.3479 83.658,-46.9052"/>
</g>
<!-- 13 -->
<g id="node14" class="node">
<title>13</title>
<ellipse fill="none" stroke="#000000" cx="868" cy="-22" rx="27" ry="18"/>
<ellipse fill="none" stroke="#000000" cx="868" cy="-22" rx="31" ry="22"/>
<text text-anchor="middle" x="868" y="-17.8" font-family="Times,serif" font-size="14.00" fill="#000000">13</text>
</g>
<!-- 0&#45;&gt;13 -->
<g id="edge2" class="edge">
<title>0&#45;&gt;13</title>
<path fill="none" stroke="#000000" d="M53.1621,-16.7017C71.2837,-13.4871 96.0092,-10 118,-10 118,-10 118,-10 773,-10 791.0346,-10 810.8442,-12.1549 827.6858,-14.6384"/>
<polygon fill="#000000" stroke="#000000" points="827.3256,-18.1246 837.7462,-16.2109 828.4066,-11.2085 827.3256,-18.1246"/>
</g>
<!-- 2 -->
<g id="node3" class="node">
<title>2</title>
<ellipse fill="none" stroke="#000000" cx="209" cy="-110" rx="27" ry="18"/>
<text text-anchor="middle" x="209" y="-105.8" font-family="Times,serif" font-size="14.00" fill="#000000">2</text>
</g>
<!-- 1&#45;&gt;2 -->
<g id="edge3" class="edge">
<title>1&#45;&gt;2</title>
<path fill="none" stroke="#000000" d="M138.1958,-67.9844C150.3635,-75.2047 166.0711,-84.5257 179.599,-92.5532"/>
<polygon fill="#000000" stroke="#000000" points="178.1599,-95.7691 188.5459,-97.8624 181.7322,-89.7492 178.1599,-95.7691"/>
</g>
<!-- 6 -->
<g id="node7" class="node">
<title>6</title>
<ellipse fill="none" stroke="#000000" cx="209" cy="-56" rx="27" ry="18"/>
<text text-anchor="middle" x="209" y="-51.8" font-family="Times,serif" font-size="14.00" fill="#000000">6</text>
</g>
<!-- 1&#45;&gt;6 -->
<g id="edge4" class="edge">
<title>1&#45;&gt;6</title>
<path fill="none" stroke="#000000" d="M145.303,-56C153.5813,-56 162.8217,-56 171.6405,-56"/>
<polygon fill="#000000" stroke="#000000" points="171.7163,-59.5001 181.7163,-56 171.7162,-52.5001 171.7163,-59.5001"/>
</g>
<!-- 3 -->
<g id="node4" class="node">
<title>3</title>
<ellipse fill="none" stroke="#000000" cx="306" cy="-154" rx="27" ry="18"/>
<text text-anchor="middle" x="306" y="-149.8" font-family="Times,serif" font-size="14.00" fill="#000000">3</text>
</g>
<!-- 2&#45;&gt;3 -->
<g id="edge5" class="edge">
<title>2&#45;&gt;3</title>
<path fill="none" stroke="#000000" d="M231.4976,-120.2051C244.2299,-125.9806 260.3567,-133.2958 274.3476,-139.6422"/>
<polygon fill="#000000" stroke="#000000" points="273.0717,-142.9067 283.6244,-143.8503 275.9634,-136.5318 273.0717,-142.9067"/>
</g>
<!-- 5 -->
<g id="node6" class="node">
<title>5</title>
<ellipse fill="none" stroke="#000000" cx="494" cy="-148" rx="27" ry="18"/>
<text text-anchor="middle" x="494" y="-143.8" font-family="Times,serif" font-size="14.00" fill="#000000">5</text>
</g>
<!-- 2&#45;&gt;5 -->
<g id="edge6" class="edge">
<title>2&#45;&gt;5</title>
<path fill="none" stroke="#000000" d="M236.1599,-110.0016C278.1377,-110.4707 361.1286,-113.2602 430,-127 440.3212,-129.0591 451.2954,-132.2659 461.1879,-135.5589"/>
<polygon fill="#000000" stroke="#000000" points="460.0608,-138.8725 470.6556,-138.8414 462.3538,-132.2587 460.0608,-138.8725"/>
</g>
<!-- 4 -->
<g id="node5" class="node">
<title>4</title>
<ellipse fill="none" stroke="#000000" cx="403" cy="-154" rx="27" ry="18"/>
<text text-anchor="middle" x="403" y="-149.8" font-family="Times,serif" font-size="14.00" fill="#000000">4</text>
</g>
<!-- 3&#45;&gt;4 -->
<g id="edge7" class="edge">
<title>3&#45;&gt;4</title>
<path fill="none" stroke="#000000" d="M333.0199,-154C343.1304,-154 354.8016,-154 365.6794,-154"/>
<polygon fill="#000000" stroke="#000000" points="365.7886,-157.5001 375.7886,-154 365.7885,-150.5001 365.7886,-157.5001"/>
<text text-anchor="middle" x="354.5" y="-158.2" font-family="Times,serif" font-size="14.00" fill="#000000">0</text>
</g>
<!-- 4&#45;&gt;3 -->
<g id="edge8" class="edge">
<title>4&#45;&gt;3</title>
<path fill="none" stroke="#000000" d="M375.7886,-154C365.6585,-154 353.9825,-154 343.1149,-154"/>
<polygon fill="#000000" stroke="#000000" points="343.0199,-150.5001 333.0199,-154 343.0199,-157.5001 343.0199,-150.5001"/>
</g>
<!-- 4&#45;&gt;5 -->
<g id="edge9" class="edge">
<title>4&#45;&gt;5</title>
<path fill="none" stroke="#000000" d="M430.303,-152.1998C438.6565,-151.649 447.9898,-151.0336 456.8809,-150.4474"/>
<polygon fill="#000000" stroke="#000000" points="457.2818,-153.9287 467.0299,-149.7783 456.8212,-146.9438 457.2818,-153.9287"/>
</g>
<!-- 12 -->
<g id="node13" class="node">
<title>12</title>
<ellipse fill="none" stroke="#000000" cx="773" cy="-83" rx="27" ry="18"/>
<text text-anchor="middle" x="773" y="-78.8" font-family="Times,serif" font-size="14.00" fill="#000000">12</text>
</g>
<!-- 5&#45;&gt;12 -->
<g id="edge10" class="edge">
<title>5&#45;&gt;12</title>
<path fill="none" stroke="#000000" d="M520.9231,-145.2067C562.0812,-140.4994 642.8363,-129.5338 709,-110 719.8683,-106.7913 731.381,-102.3003 741.6007,-97.9007"/>
<polygon fill="#000000" stroke="#000000" points="743.2195,-101.0116 750.9395,-93.7554 740.3795,-94.6135 743.2195,-101.0116"/>
</g>
<!-- 7 -->
<g id="node8" class="node">
<title>7</title>
<ellipse fill="none" stroke="#000000" cx="306" cy="-56" rx="27" ry="18"/>
<text text-anchor="middle" x="306" y="-51.8" font-family="Times,serif" font-size="14.00" fill="#000000">7</text>
</g>
<!-- 6&#45;&gt;7 -->
<g id="edge11" class="edge">
<title>6&#45;&gt;7</title>
<path fill="none" stroke="#000000" d="M236.0199,-56C246.1304,-56 257.8016,-56 268.6794,-56"/>
<polygon fill="#000000" stroke="#000000" points="268.7886,-59.5001 278.7886,-56 268.7885,-52.5001 268.7886,-59.5001"/>
<text text-anchor="middle" x="257.5" y="-60.2" font-family="Times,serif" font-size="14.00" fill="#000000">1</text>
</g>
<!-- 8 -->
<g id="node9" class="node">
<title>8</title>
<ellipse fill="none" stroke="#000000" cx="403" cy="-56" rx="27" ry="18"/>
<text text-anchor="middle" x="403" y="-51.8" font-family="Times,serif" font-size="14.00" fill="#000000">8</text>
</g>
<!-- 7&#45;&gt;8 -->
<g id="edge12" class="edge">
<title>7&#45;&gt;8</title>
<path fill="none" stroke="#000000" d="M333.0199,-56C343.1304,-56 354.8016,-56 365.6794,-56"/>
<polygon fill="#000000" stroke="#000000" points="365.7886,-59.5001 375.7886,-56 365.7885,-52.5001 365.7886,-59.5001"/>
</g>
<!-- 9 -->
<g id="node10" class="node">
<title>9</title>
<ellipse fill="none" stroke="#000000" cx="494" cy="-94" rx="27" ry="18"/>
<text text-anchor="middle" x="494" y="-89.8" font-family="Times,serif" font-size="14.00" fill="#000000">9</text>
</g>
<!-- 8&#45;&gt;9 -->
<g id="edge13" class="edge">
<title>8&#45;&gt;9</title>
<path fill="none" stroke="#000000" d="M425.9631,-65.589C436.7404,-70.0894 449.7746,-75.5322 461.5386,-80.4447"/>
<polygon fill="#000000" stroke="#000000" points="460.4677,-83.7904 471.0442,-84.4141 463.1651,-77.3309 460.4677,-83.7904"/>
</g>
<!-- 11 -->
<g id="node12" class="node">
<title>11</title>
<ellipse fill="none" stroke="#000000" cx="682" cy="-83" rx="27" ry="18"/>
<text text-anchor="middle" x="682" y="-78.8" font-family="Times,serif" font-size="14.00" fill="#000000">11</text>
</g>
<!-- 8&#45;&gt;11 -->
<g id="edge14" class="edge">
<title>8&#45;&gt;11</title>
<path fill="none" stroke="#000000" d="M430.3196,-55.7097C471.3184,-55.6542 551.0909,-57.0212 618,-67 627.6499,-68.4392 637.9643,-70.6922 647.4325,-73.0582"/>
<polygon fill="#000000" stroke="#000000" points="646.7429,-76.4954 657.3028,-75.6366 648.5121,-69.7227 646.7429,-76.4954"/>
</g>
<!-- 10 -->
<g id="node11" class="node">
<title>10</title>
<ellipse fill="none" stroke="#000000" cx="591" cy="-94" rx="27" ry="18"/>
<text text-anchor="middle" x="591" y="-89.8" font-family="Times,serif" font-size="14.00" fill="#000000">10</text>
</g>
<!-- 9&#45;&gt;10 -->
<g id="edge15" class="edge">
<title>9&#45;&gt;10</title>
<path fill="none" stroke="#000000" d="M521.0199,-94C531.1304,-94 542.8016,-94 553.6794,-94"/>
<polygon fill="#000000" stroke="#000000" points="553.7886,-97.5001 563.7886,-94 553.7885,-90.5001 553.7886,-97.5001"/>
<text text-anchor="middle" x="542.5" y="-98.2" font-family="Times,serif" font-size="14.00" fill="#000000">0</text>
</g>
<!-- 10&#45;&gt;9 -->
<g id="edge16" class="edge">
<title>10&#45;&gt;9</title>
<path fill="none" stroke="#000000" d="M563.8984,-91.1994C558.0046,-90.6999 551.7983,-90.2572 546,-90 541.1126,-89.7832 535.9718,-89.8361 530.9024,-90.0545"/>
<polygon fill="#000000" stroke="#000000" points="530.4591,-86.5755 520.7009,-90.7019 530.9025,-93.5615 530.4591,-86.5755"/>
</g>
<!-- 10&#45;&gt;11 -->
<g id="edge17" class="edge">
<title>10&#45;&gt;11</title>
<path fill="none" stroke="#000000" d="M617.8108,-90.7591C626.4195,-89.7185 636.1086,-88.5473 645.2996,-87.4363"/>
<polygon fill="#000000" stroke="#000000" points="645.8731,-90.8926 655.3808,-86.2177 645.033,-83.9431 645.8731,-90.8926"/>
</g>
<!-- 11&#45;&gt;12 -->
<g id="edge18" class="edge">
<title>11&#45;&gt;12</title>
<path fill="none" stroke="#000000" d="M709.303,-83C717.5813,-83 726.8217,-83 735.6405,-83"/>
<polygon fill="#000000" stroke="#000000" points="735.7163,-86.5001 745.7163,-83 735.7162,-79.5001 735.7163,-86.5001"/>
</g>
<!-- 12&#45;&gt;13 -->
<g id="edge19" class="edge">
<title>12&#45;&gt;13</title>
<path fill="none" stroke="#000000" d="M792.6841,-70.3608C805.286,-62.269 821.9209,-51.5876 836.3513,-42.3218"/>
<polygon fill="#000000" stroke="#000000" points="838.472,-45.1195 844.9956,-36.7713 834.6898,-39.2293 838.472,-45.1195"/>
</g>
</g>
</svg>
