<?xml version="1.0" encoding="UTF-8" standalone="no"?>
<!DOCTYPE svg PUBLIC "-//W3C//DTD SVG 1.1//EN"
 "http://www.w3.org/Graphics/SVG/1.1/DTD/svg11.dtd">
<!-- Generated by graphviz version 2.40.1 (20161225.0304)
 -->
<!-- Title: G Pages: 1 -->
<svg width="280pt" height="128pt"
 viewBox="0.00 0.00 280.00 127.80" xmlns="http://www.w3.org/2000/svg" xmlns:xlink="http://www.w3.org/1999/xlink">
<g id="graph0" class="graph" transform="scale(1 1) rotate(0) translate(4 123.8)">
<title>G</title>
<polygon fill="#ffffff" stroke="transparent" points="-4,4 -4,-123.8 276,-123.8 276,4 -4,4"/>
<!-- 0 -->
<g id="node1" class="node">
<title>0</title>
<ellipse fill="none" stroke="#000000" cx="31" cy="-22" rx="27" ry="18"/>
<ellipse fill="none" stroke="#000000" cx="31" cy="-22" rx="31" ry="22"/>
<text text-anchor="middle" x="31" y="-17.8" font-family="Times,serif" font-size="14.00" fill="#000000">d0</text>
</g>
<!-- 1 -->
<g id="node2" class="node">
<title>1</title>
<ellipse fill="none" stroke="#000000" cx="136" cy="-63" rx="27" ry="18"/>
<ellipse fill="none" stroke="#000000" cx="136" cy="-63" rx="31" ry="22"/>
<text text-anchor="middle" x="136" y="-58.8" font-family="Times,serif" font-size="14.00" fill="#000000">d1</text>
</g>
<!-- 0&#45;&gt;1 -->
<g id="edge1" class="edge">
<title>0&#45;&gt;1</title>
<path fill="none" stroke="#000000" d="M58.3134,-32.6652C70.8307,-37.553 85.8515,-43.4182 99.3348,-48.6831"/>
<polygon fill="#000000" stroke="#000000" points="98.2352,-52.0111 108.8233,-52.3882 100.7814,-45.4905 98.2352,-52.0111"/>
<text text-anchor="middle" x="83.5" y="-48.2" font-family="Times,serif" font-size="14.00" fill="#000000">0</text>
</g>
<!-- 2 -->
<g id="node3" class="node">
<title>2</title>
<ellipse fill="none" stroke="#000000" cx="241" cy="-39" rx="27" ry="18"/>
<ellipse fill="none" stroke="#000000" cx="241" cy="-39" rx="31" ry="22"/>
<text text-anchor="middle" x="241" y="-34.8" font-family="Times,serif" font-size="14.00" fill="#000000">d2</text>
</g>
<!-- 0&#45;&gt;2 -->
<g id="edge2" class="edge">
<title>0&#45;&gt;2</title>
<path fill="none" stroke="#000000" d="M61.4368,-16.9349C89.1236,-13.1652 131.0332,-9.5585 167,-15.2 179.3949,-17.1442 192.5466,-20.8151 204.2708,-24.7022"/>
<polygon fill="#000000" stroke="#000000" points="203.1405,-28.0147 213.7353,-27.9851 205.4345,-21.4013 203.1405,-28.0147"/>
<text text-anchor="middle" x="136" y="-20.2" font-family="Times,serif" font-size="14.00" fill="#000000">1</text>
</g>
<!-- 1&#45;&gt;1 -->
<g id="edge4" class="edge">
<title>1&#45;&gt;1</title>
<path fill="none" stroke="#000000" d="M126.488,-83.9908C125.3137,-94.0872 128.4844,-103 136,-103 140.8147,-103 143.8462,-99.3422 145.0946,-94.0587"/>
<polygon fill="#000000" stroke="#000000" points="148.5946,-94.1272 145.512,-83.9908 141.6006,-93.8372 148.5946,-94.1272"/>
<text text-anchor="middle" x="136" y="-107.2" font-family="Times,serif" font-size="14.00" fill="#000000">0</text>
</g>
<!-- 1&#45;&gt;2 -->
<g id="edge3" class="edge">
<title>1&#45;&gt;2</title>
<path fill="none" stroke="#000000" d="M167.0372,-61.0432C175.223,-60.1556 184.0017,-58.8676 192,-57 196.1203,-56.0379 200.3675,-54.828 204.5583,-53.4928"/>
<polygon fill="#000000" stroke="#000000" points="205.8223,-56.7595 214.148,-50.2072 203.5534,-50.1374 205.8223,-56.7595"/>
<text text-anchor="middle" x="188.5" y="-63.2" font-family="Times,serif" font-size="14.00" fill="#000000">1</text>
</g>
<!-- 2&#45;&gt;1 -->
<g id="edge5" class="edge">
<title>2&#45;&gt;1</title>
<path fill="none" stroke="#000000" d="M210.7345,-34.2084C202.301,-33.7544 193.2051,-34.1028 185,-36.2 179.1022,-37.7075 173.1502,-40.0874 167.5252,-42.8212"/>
<polygon fill="#000000" stroke="#000000" points="165.6147,-39.8733 158.435,-47.6644 168.9063,-46.0511 165.6147,-39.8733"/>
<text text-anchor="middle" x="188.5" y="-41.2" font-family="Times,serif" font-size="14.00" fill="#000000">0</text>
</g>
<!-- 2&#45;&gt;2 -->
<g id="edge6" class="edge">
<title>2&#45;&gt;2</title>
<path fill="none" stroke="#000000" d="M231.488,-59.9908C230.3137,-70.0872 233.4844,-79 241,-79 245.8147,-79 248.8462,-75.3422 250.0946,-70.0587"/>
<polygon fill="#000000" stroke="#000000" points="253.5946,-70.1272 250.512,-59.9908 246.6006,-69.8372 253.5946,-70.1272"/>
<text text-anchor="middle" x="241" y="-83.2" font-family="Times,serif" font-size="14.00" fill="#000000">1</text>
</g>
</g>
</svg>
