<?xml version="1.0" standalone="no"?>
<svg xmlns="http://www.w3.org/2000/svg" xmlns:xlink="http://www.w3.org/1999/xlink" width="456pt" height="135pt" viewBox="0.00 0.00 456.43 135.36">
<g id="graph0" class="graph" transform="translate(4,131.36000061035156) scale(1)" data-name="G">

<polygon fill="white" stroke="none" points="-4,4 -4,-131.36 452.43,-131.36 452.43,4 -4,4"/>
<!-- d -->
<g id="node1" class="node" pointer-events="visible" data-name="d0" data-comment="d">

<ellipse fill="none" stroke="black" cx="27" cy="-60.36" rx="27" ry="18"/>
<text text-anchor="middle" x="27" y="-56.16" font-family="Times,serif" font-size="14.00">0</text>
</g>
<!-- d1 -->
<g id="node2" class="node" pointer-events="visible" data-name="d1">

<ellipse fill="none" stroke="black" cx="124" cy="-60.36" rx="27" ry="18"/>
<text text-anchor="middle" x="124" y="-56.16" font-family="Times,serif" font-size="14.00">1</text>
</g>
<!-- d2 -->
<g id="node3" class="node" pointer-events="visible" data-name="d2">

<ellipse fill="none" stroke="black" cx="221" cy="-60.36" rx="27" ry="18"/>
<text text-anchor="middle" x="221" y="-56.16" font-family="Times,serif" font-size="14.00">2</text>
</g><g id="edge1" class="edge" data-name="d0-&gt;d1" data-comment="d2">

<path fill="none" stroke="black" d="M54.46,-60.36C64.04,-60.36 75.04,-60.36 85.39,-60.36"/>
<polygon fill="black" stroke="black" points="85.17,-63.86 95.17,-60.36 85.17,-56.86 85.17,-63.86"/>
<text text-anchor="middle" x="75.5" y="-64.56" font-family="Times,serif" font-size="14.00">b</text>
</g>
<!-- d3 -->
<g id="node4" class="node" pointer-events="visible" data-name="d3">

<ellipse fill="none" stroke="black" cx="317.21" cy="-87.36" rx="27" ry="18"/>
<text text-anchor="middle" x="317.21" y="-83.16" font-family="Times,serif" font-size="14.00">3</text>
</g>
<!-- d4 -->
<g id="node5" class="node" pointer-events="visible" data-name="d4">

<ellipse fill="none" stroke="black" cx="317.21" cy="-33.36" rx="27" ry="18"/>
<text text-anchor="middle" x="317.21" y="-29.16" font-family="Times,serif" font-size="14.00">4</text>
</g><g id="edge2" class="edge" data-name="d1-&gt;d2" data-comment="d4">

<path fill="none" stroke="black" d="M151.46,-60.36C161.04,-60.36 172.04,-60.36 182.39,-60.36"/>
<polygon fill="black" stroke="black" points="182.17,-63.86 192.17,-60.36 182.17,-56.86 182.17,-63.86"/>
<text text-anchor="middle" x="172.5" y="-64.56" font-family="Times,serif" font-size="14.00">b</text>
</g>
<!-- d5 -->
<!-- d5 -->
<!-- d5 -->
<!-- d5 -->
<!-- d5 -->
<g id="node6" class="node" pointer-events="visible" data-name="d5">

<ellipse fill="none" stroke="black" cx="417.43" cy="-105.36" rx="27" ry="18"/>
<text text-anchor="middle" x="417.43" y="-101.16" font-family="Times,serif" font-size="14.00">5</text><ellipse fill="none" stroke="black" cx="417.43" cy="-105.36" rx="31" ry="22"/>

</g>
<!-- d6 -->

<!-- d6 -->

<g id="edge5" class="edge" data-name="d3-&gt;d5" data-comment="d6">

<path fill="none" stroke="black" d="M342.77,-94.03C349.07,-95.6 355.87,-97.16 362.21,-98.36 366.5,-99.16 370.99,-99.91 375.48,-100.59"/>
<polygon fill="black" stroke="black" points="374.62,-104 385,-101.92 375.58,-97.07 374.62,-104"/>
<text text-anchor="middle" x="365.32" y="-103.56" font-family="Times,serif" font-size="14.00">a</text>
</g>

<!-- d3&#45;&gt;d -->
<g id="edge6" class="edge" data-name="d3-&gt;d6" data-comment="d3-&gt;d">

<path fill="none" stroke="black" d="M338.3,-75.87C347.51,-70.58 358.55,-64.19 368.43,-58.36 373.43,-55.4 378.72,-52.24 383.87,-49.14"/>
<polygon fill="black" stroke="black" points="385.48,-52.26 392.24,-44.1 381.87,-46.27 385.48,-52.26"/>
<text text-anchor="middle" x="365.32" y="-66.56" font-family="Times,serif" font-size="14.00">c</text>
</g>
<g id="node7" class="node" pointer-events="visible" data-name="d6" data-comment="d3-&gt;d">

<ellipse fill="none" stroke="black" cx="417.43" cy="-29.36" rx="27" ry="18"/>
<text text-anchor="middle" x="417.43" y="-25.16" font-family="Times,serif" font-size="14.00">6</text><ellipse fill="none" stroke="black" cx="417.43" cy="-29.36" rx="31" ry="22"/>

</g><g id="edge3" class="edge" data-name="d2-&gt;d3" data-comment="d3-&gt;d">

<path fill="none" stroke="black" d="M246.26,-67.31C256.92,-70.36 269.64,-74.01 281.29,-77.35"/>
<polygon fill="black" stroke="black" points="280,-80.62 290.58,-80.01 281.93,-73.89 280,-80.62"/>
<text text-anchor="middle" x="269.11" y="-78.56" font-family="Times,serif" font-size="14.00">a</text>
</g>
<g id="edge4" class="edge" data-name="d2-&gt;d4" data-comment="d3-&gt;d">

<path fill="none" stroke="black" d="M246.26,-53.4C256.92,-50.35 269.64,-46.7 281.29,-43.36"/>
<polygon fill="black" stroke="black" points="281.93,-46.82 290.58,-40.7 280,-40.09 281.93,-46.82"/>
<text text-anchor="middle" x="269.11" y="-52.56" font-family="Times,serif" font-size="14.00">c</text>
</g>
<!-- d4&#45;&gt;d5 -->
<g id="edge7" class="edge" data-name="d4-&gt;d5">

<path fill="none" stroke="black" d="M344.51,-31.37C352.62,-31.83 361.29,-33.48 368.43,-37.56 370.6,-38.8 384.53,-58.62 396.83,-76.52"/>
<polygon fill="black" stroke="black" points="393.64,-78.07 402.18,-84.34 399.42,-74.11 393.64,-78.07"/>
<text text-anchor="middle" x="365.32" y="-42.56" font-family="Times,serif" font-size="14.00">a</text>
</g>
<!-- d4&#45;&gt;d6 -->
<g id="edge8" class="edge" data-name="d4-&gt;d6">

<path fill="none" stroke="black" d="M333.56,-18.58C341.46,-12 351.63,-4.98 362.21,-1.56 371.23,1.36 380.57,-1.17 388.91,-5.69"/>
<polygon fill="black" stroke="black" points="386.94,-8.58 397.23,-11.13 390.78,-2.72 386.94,-8.58"/>
<text text-anchor="middle" x="365.32" y="-6.56" font-family="Times,serif" font-size="14.00">c</text>
</g>
</g>
</svg>