<?xml version="1.0" encoding="UTF-8" standalone="no"?>
<!DOCTYPE svg PUBLIC "-//W3C//DTD SVG 1.1//EN"
 "http://www.w3.org/Graphics/SVG/1.1/DTD/svg11.dtd">
<!-- Generated by graphviz version 2.40.1 (20161225.0304)
 -->
<!-- Title: G Pages: 1 -->
<svg width="264pt" height="203pt"
 viewBox="0.00 0.00 264.00 203.00" xmlns="http://www.w3.org/2000/svg" xmlns:xlink="http://www.w3.org/1999/xlink">
<g id="graph0" class="graph" transform="scale(1 1) rotate(0) translate(4 199)">
<title>G</title>
<polygon fill="#ffffff" stroke="transparent" points="-4,4 -4,-199 260,-199 260,4 -4,4"/>
<!-- d0 -->
<g id="node1" class="node">
<title>d0</title>
<ellipse fill="none" stroke="#000000" cx="27" cy="-85" rx="27" ry="18"/>
<text text-anchor="middle" x="27" y="-80.8" font-family="Times,serif" font-size="14.00" fill="#000000">0</text>
</g>
<!-- d1 -->
<g id="node2" class="node">
<title>d1</title>
<ellipse fill="none" stroke="#000000" cx="124" cy="-142" rx="27" ry="18"/>
<text text-anchor="middle" x="124" y="-137.8" font-family="Times,serif" font-size="14.00" fill="#000000">1</text>
</g>
<!-- d0&#45;&gt;d1 -->
<g id="edge1" class="edge">
<title>d0&#45;&gt;d1</title>
<path fill="none" stroke="#000000" d="M47.5712,-97.0882C61.2032,-105.0988 79.3006,-115.7333 94.4631,-124.6432"/>
<polygon fill="#000000" stroke="#000000" points="93.0636,-127.8804 103.4584,-129.9292 96.61,-121.8453 93.0636,-127.8804"/>
<text text-anchor="middle" x="75.5" y="-119.2" font-family="Times,serif" font-size="14.00" fill="#000000">a</text>
</g>
<!-- d2 -->
<g id="node3" class="node">
<title>d2</title>
<ellipse fill="none" stroke="#000000" cx="124" cy="-25" rx="27" ry="18"/>
<text text-anchor="middle" x="124" y="-20.8" font-family="Times,serif" font-size="14.00" fill="#000000">2</text>
</g>
<!-- d0&#45;&gt;d2 -->
<g id="edge3" class="edge">
<title>d0&#45;&gt;d2</title>
<path fill="none" stroke="#000000" d="M47.0985,-72.568C61.0148,-63.9599 79.748,-52.3723 95.2408,-42.7892"/>
<polygon fill="#000000" stroke="#000000" points="97.264,-45.6533 103.9273,-37.4161 93.5816,-39.7001 97.264,-45.6533"/>
<text text-anchor="middle" x="75.5" y="-61.2" font-family="Times,serif" font-size="14.00" fill="#000000">b</text>
</g>
<!-- d3 -->
<g id="node4" class="node">
<title>d3</title>
<ellipse fill="none" stroke="#000000" cx="124" cy="-85" rx="27" ry="18"/>
<text text-anchor="middle" x="124" y="-80.8" font-family="Times,serif" font-size="14.00" fill="#000000">3</text>
</g>
<!-- d0&#45;&gt;d3 -->
<g id="edge2" class="edge">
<title>d0&#45;&gt;d3</title>
<path fill="none" stroke="#000000" d="M54.0199,-85C64.1304,-85 75.8016,-85 86.6794,-85"/>
<polygon fill="#000000" stroke="#000000" points="86.7886,-88.5001 96.7886,-85 86.7885,-81.5001 86.7886,-88.5001"/>
<text text-anchor="middle" x="75.5" y="-89.2" font-family="Times,serif" font-size="14.00" fill="#000000">c</text>
</g>
<!-- d4 -->
<g id="node5" class="node">
<title>d4</title>
<ellipse fill="none" stroke="#000000" cx="225" cy="-173" rx="27" ry="18"/>
<ellipse fill="none" stroke="#000000" cx="225" cy="-173" rx="31" ry="22"/>
<text text-anchor="middle" x="225" y="-168.8" font-family="Times,serif" font-size="14.00" fill="#000000">4</text>
</g>
<!-- d1&#45;&gt;d4 -->
<g id="edge5" class="edge">
<title>d1&#45;&gt;d4</title>
<path fill="none" stroke="#000000" d="M146.6489,-151.841C153.7255,-154.7035 161.6145,-157.6805 169,-160 174.2372,-161.6448 179.8089,-163.1829 185.3296,-164.5842"/>
<polygon fill="#000000" stroke="#000000" points="184.5861,-168.0052 195.1285,-166.9524 186.2306,-161.2011 184.5861,-168.0052"/>
<text text-anchor="middle" x="172.5" y="-165.2" font-family="Times,serif" font-size="14.00" fill="#000000">a</text>
</g>
<!-- d5 -->
<g id="node6" class="node">
<title>d5</title>
<ellipse fill="none" stroke="#000000" cx="225" cy="-102" rx="27" ry="18"/>
<ellipse fill="none" stroke="#000000" cx="225" cy="-102" rx="31" ry="22"/>
<text text-anchor="middle" x="225" y="-97.8" font-family="Times,serif" font-size="14.00" fill="#000000">5</text>
</g>
<!-- d1&#45;&gt;d5 -->
<g id="edge6" class="edge">
<title>d1&#45;&gt;d5</title>
<path fill="none" stroke="#000000" d="M147.4253,-132.7227C159.5236,-127.9313 174.5653,-121.9741 188.1742,-116.5845"/>
<polygon fill="#000000" stroke="#000000" points="189.7591,-119.7214 197.7677,-112.7851 187.1816,-113.2132 189.7591,-119.7214"/>
<text text-anchor="middle" x="172.5" y="-127.2" font-family="Times,serif" font-size="14.00" fill="#000000">c</text>
</g>
<!-- d6 -->
<g id="node7" class="node">
<title>d6</title>
<ellipse fill="none" stroke="#000000" cx="225" cy="-22" rx="27" ry="18"/>
<ellipse fill="none" stroke="#000000" cx="225" cy="-22" rx="31" ry="22"/>
<text text-anchor="middle" x="225" y="-17.8" font-family="Times,serif" font-size="14.00" fill="#000000">6</text>
</g>
<!-- d2&#45;&gt;d6 -->
<g id="edge4" class="edge">
<title>d2&#45;&gt;d6</title>
<path fill="none" stroke="#000000" d="M151.1246,-23.8336C157.017,-23.6029 163.2169,-23.3776 169,-23.2 173.7901,-23.0529 178.8112,-22.9179 183.7969,-22.7959"/>
<polygon fill="#000000" stroke="#000000" points="183.9786,-26.2928 193.8955,-22.5639 183.8177,-19.2946 183.9786,-26.2928"/>
<text text-anchor="middle" x="172.5" y="-28.2" font-family="Times,serif" font-size="14.00" fill="#000000">b</text>
</g>
<!-- d3&#45;&gt;d4 -->
<g id="edge7" class="edge">
<title>d3&#45;&gt;d4</title>
<path fill="none" stroke="#000000" d="M150.464,-89.1733C159.287,-91.5676 168.7143,-95.322 176,-101.2 188.6397,-111.3975 185.0024,-119.4799 194,-133 196.7745,-137.1691 199.8503,-141.4647 202.9558,-145.6237"/>
<polygon fill="#000000" stroke="#000000" points="200.4247,-148.075 209.2846,-153.8847 205.9814,-143.8179 200.4247,-148.075"/>
<text text-anchor="middle" x="172.5" y="-105.2" font-family="Times,serif" font-size="14.00" fill="#000000">a</text>
</g>
<!-- d3&#45;&gt;d5 -->
<g id="edge8" class="edge">
<title>d3&#45;&gt;d5</title>
<path fill="none" stroke="#000000" d="M141.1245,-71.0115C151.1661,-64.5321 164.1661,-59.0821 176,-63.2 184.5444,-66.1733 192.7207,-71.3254 199.8624,-76.9217"/>
<polygon fill="#000000" stroke="#000000" points="197.8394,-79.7952 207.7308,-83.5914 202.3657,-74.4554 197.8394,-79.7952"/>
<text text-anchor="middle" x="172.5" y="-67.2" font-family="Times,serif" font-size="14.00" fill="#000000">c</text>
</g>
</g>
</svg>
