<?xml version="1.0" encoding="UTF-8" standalone="no"?>
<!DOCTYPE svg PUBLIC "-//W3C//DTD SVG 1.1//EN"
 "http://www.w3.org/Graphics/SVG/1.1/DTD/svg11.dtd">
<!-- Generated by graphviz version 2.40.1 (20161225.0304)
 -->
<!-- Title: G Pages: 1 -->
<svg width="466pt" height="127pt"
 viewBox="0.00 0.00 466.00 126.80" xmlns="http://www.w3.org/2000/svg" xmlns:xlink="http://www.w3.org/1999/xlink">
<g id="graph0" class="graph" transform="scale(1 1) rotate(0) translate(4 122.8)">
<title>G</title>
<polygon fill="#ffffff" stroke="transparent" points="-4,4 -4,-122.8 462,-122.8 462,4 -4,4"/>
<!-- d0 -->
<g id="node1" class="node">
<title>d0</title>
<ellipse fill="none" stroke="#000000" cx="27" cy="-34" rx="27" ry="18"/>
<text text-anchor="middle" x="27" y="-29.8" font-family="Times,serif" font-size="14.00" fill="#000000">0</text>
</g>
<!-- d1 -->
<g id="node2" class="node">
<title>d1</title>
<ellipse fill="none" stroke="#000000" cx="124" cy="-34" rx="27" ry="18"/>
<text text-anchor="middle" x="124" y="-29.8" font-family="Times,serif" font-size="14.00" fill="#000000">1</text>
</g>
<!-- d0&#45;&gt;d1 -->
<g id="edge1" class="edge">
<title>d0&#45;&gt;d1</title>
<path fill="none" stroke="#000000" d="M54.0199,-34C64.1304,-34 75.8016,-34 86.6794,-34"/>
<polygon fill="#000000" stroke="#000000" points="86.7886,-37.5001 96.7886,-34 86.7885,-30.5001 86.7886,-37.5001"/>
<text text-anchor="middle" x="75.5" y="-38.2" font-family="Times,serif" font-size="14.00" fill="#000000">x</text>
</g>
<!-- d2 -->
<g id="node3" class="node">
<title>d2</title>
<ellipse fill="none" stroke="#000000" cx="225" cy="-75" rx="27" ry="18"/>
<ellipse fill="none" stroke="#000000" cx="225" cy="-75" rx="31" ry="22"/>
<text text-anchor="middle" x="225" y="-70.8" font-family="Times,serif" font-size="14.00" fill="#000000">2</text>
</g>
<!-- d1&#45;&gt;d2 -->
<g id="edge2" class="edge">
<title>d1&#45;&gt;d2</title>
<path fill="none" stroke="#000000" d="M147.1714,-43.4062C159.4745,-48.4006 174.8745,-54.652 188.7213,-60.273"/>
<polygon fill="#000000" stroke="#000000" points="187.4201,-63.5221 198.0023,-64.0405 190.0531,-57.0362 187.4201,-63.5221"/>
<text text-anchor="middle" x="172.5" y="-59.2" font-family="Times,serif" font-size="14.00" fill="#000000">x</text>
</g>
<!-- d3 -->
<g id="node4" class="node">
<title>d3</title>
<ellipse fill="none" stroke="#000000" cx="326" cy="-18" rx="27" ry="18"/>
<text text-anchor="middle" x="326" y="-13.8" font-family="Times,serif" font-size="14.00" fill="#000000">3</text>
</g>
<!-- d1&#45;&gt;d3 -->
<g id="edge3" class="edge">
<title>d1&#45;&gt;d3</title>
<path fill="none" stroke="#000000" d="M150.9094,-31.213C163.9189,-29.9098 179.7637,-28.3874 194,-27.2 226.0329,-24.5283 262.4841,-22.0287 288.9536,-20.3112"/>
<polygon fill="#000000" stroke="#000000" points="289.1783,-23.8041 298.9332,-19.67 288.7294,-16.8185 289.1783,-23.8041"/>
<text text-anchor="middle" x="225" y="-32.2" font-family="Times,serif" font-size="14.00" fill="#000000">y</text>
</g>
<!-- d2&#45;&gt;d3 -->
<g id="edge5" class="edge">
<title>d2&#45;&gt;d3</title>
<path fill="none" stroke="#000000" d="M249.4493,-61.2019C263.5666,-53.2347 281.4242,-43.1566 296.3402,-34.7387"/>
<polygon fill="#000000" stroke="#000000" points="298.1989,-37.7087 305.1876,-29.7456 294.7585,-31.6125 298.1989,-37.7087"/>
<text text-anchor="middle" x="277.5" y="-51.2" font-family="Times,serif" font-size="14.00" fill="#000000">y</text>
</g>
<!-- d4 -->
<g id="node5" class="node">
<title>d4</title>
<ellipse fill="none" stroke="#000000" cx="427" cy="-62" rx="27" ry="18"/>
<ellipse fill="none" stroke="#000000" cx="427" cy="-62" rx="31" ry="22"/>
<text text-anchor="middle" x="427" y="-57.8" font-family="Times,serif" font-size="14.00" fill="#000000">4</text>
</g>
<!-- d2&#45;&gt;d4 -->
<g id="edge4" class="edge">
<title>d2&#45;&gt;d4</title>
<path fill="none" stroke="#000000" d="M255.8789,-78.4452C281.8678,-80.7517 319.9732,-82.7448 353,-79 364.5323,-77.6924 376.8854,-75.2733 388.1305,-72.662"/>
<polygon fill="#000000" stroke="#000000" points="389.2031,-76.0031 398.0909,-70.2361 387.5466,-69.2019 389.2031,-76.0031"/>
<text text-anchor="middle" x="326" y="-86.2" font-family="Times,serif" font-size="14.00" fill="#000000">x</text>
</g>
<!-- d3&#45;&gt;d3 -->
<g id="edge6" class="edge">
<title>d3&#45;&gt;d3</title>
<path fill="none" stroke="#000000" d="M317.4307,-35.4099C315.8311,-45.0879 318.6875,-54 326,-54 330.5703,-54 333.4,-50.5187 334.489,-45.5449"/>
<polygon fill="#000000" stroke="#000000" points="337.9899,-45.4374 334.5693,-35.4099 330.9901,-45.3818 337.9899,-45.4374"/>
<text text-anchor="middle" x="326" y="-58.2" font-family="Times,serif" font-size="14.00" fill="#000000">y</text>
</g>
<!-- d3&#45;&gt;d4 -->
<g id="edge7" class="edge">
<title>d3&#45;&gt;d4</title>
<path fill="none" stroke="#000000" d="M348.6664,-27.8745C361.1418,-33.3093 376.9129,-40.1799 391.0287,-46.3293"/>
<polygon fill="#000000" stroke="#000000" points="389.9101,-49.6597 400.4758,-50.4449 392.7059,-43.2422 389.9101,-49.6597"/>
<text text-anchor="middle" x="374.5" y="-44.2" font-family="Times,serif" font-size="14.00" fill="#000000">x</text>
</g>
<!-- d4&#45;&gt;d4 -->
<g id="edge8" class="edge">
<title>d4&#45;&gt;d4</title>
<path fill="none" stroke="#000000" d="M417.488,-82.9908C416.3137,-93.0872 419.4844,-102 427,-102 431.8147,-102 434.8462,-98.3422 436.0946,-93.0587"/>
<polygon fill="#000000" stroke="#000000" points="439.5946,-93.1272 436.512,-82.9908 432.6006,-92.8372 439.5946,-93.1272"/>
<text text-anchor="middle" x="427" y="-106.2" font-family="Times,serif" font-size="14.00" fill="#000000">x</text>
</g>
</g>
</svg>
