<?xml version="1.0" encoding="UTF-8" standalone="no"?>
<!DOCTYPE svg PUBLIC "-//W3C//DTD SVG 1.1//EN"
 "http://www.w3.org/Graphics/SVG/1.1/DTD/svg11.dtd">
<!-- Generated by graphviz version 2.40.1 (20161225.0304)
 -->
<!-- Title: G Pages: 1 -->
<svg width="650pt" height="189pt"
 viewBox="0.00 0.00 650.43 188.80" xmlns="http://www.w3.org/2000/svg" xmlns:xlink="http://www.w3.org/1999/xlink">
<g id="graph0" class="graph" transform="scale(1 1) rotate(0) translate(4 184.8)">
<title>G</title>
<polygon fill="#ffffff" stroke="transparent" points="-4,4 -4,-184.8 646.4292,-184.8 646.4292,4 -4,4"/>
<!-- 0 -->
<g id="node1" class="node">
<title>0</title>
<ellipse fill="none" stroke="#000000" cx="27" cy="-124" rx="27" ry="18"/>
<text text-anchor="middle" x="27" y="-119.8" font-family="Times,serif" font-size="14.00" fill="#000000">0</text>
</g>
<!-- 1 -->
<g id="node2" class="node">
<title>1</title>
<ellipse fill="none" stroke="#000000" cx="123.2146" cy="-124" rx="27" ry="18"/>
<text text-anchor="middle" x="123.2146" y="-119.8" font-family="Times,serif" font-size="14.00" fill="#000000">1</text>
</g>
<!-- 0&#45;&gt;1 -->
<g id="edge1" class="edge">
<title>0&#45;&gt;1</title>
<path fill="none" stroke="#000000" d="M54.0572,-124C63.8952,-124 75.1961,-124 85.7729,-124"/>
<polygon fill="#000000" stroke="#000000" points="86.0272,-127.5001 96.0271,-124 86.0271,-120.5001 86.0272,-127.5001"/>
<text text-anchor="middle" x="75.1073" y="-128.2" font-family="Times,serif" font-size="14.00" fill="#000000">a</text>
</g>
<!-- 2 -->
<g id="node3" class="node">
<title>2</title>
<ellipse fill="none" stroke="#000000" cx="219.4292" cy="-84" rx="27" ry="18"/>
<text text-anchor="middle" x="219.4292" y="-79.8" font-family="Times,serif" font-size="14.00" fill="#000000">2</text>
</g>
<!-- 1&#45;&gt;2 -->
<g id="edge2" class="edge">
<title>1&#45;&gt;2</title>
<path fill="none" stroke="#000000" d="M146.5055,-114.3171C158.6782,-109.2564 173.7702,-102.9822 187.0609,-97.4567"/>
<polygon fill="#000000" stroke="#000000" points="188.4626,-100.6645 196.3528,-93.5937 185.7754,-94.2008 188.4626,-100.6645"/>
<text text-anchor="middle" x="171.3219" y="-109.2" font-family="Times,serif" font-size="14.00" fill="#000000">a</text>
</g>
<!-- 3 -->
<g id="node4" class="node">
<title>3</title>
<ellipse fill="none" stroke="#000000" cx="611.4292" cy="-124" rx="27" ry="18"/>
<text text-anchor="middle" x="611.4292" y="-119.8" font-family="Times,serif" font-size="14.00" fill="#000000">3</text>
</g>
<!-- 1&#45;&gt;3 -->
<g id="edge3" class="edge">
<title>1&#45;&gt;3</title>
<path fill="none" stroke="#000000" d="M142.1531,-137.0975C160.8959,-148.7632 190.8471,-164 219.4292,-164 219.4292,-164 219.4292,-164 510.4292,-164 536.4793,-164 563.8213,-152.3554 583.4776,-141.6319"/>
<polygon fill="#000000" stroke="#000000" points="585.2496,-144.6505 592.2025,-136.6563 581.7819,-138.5698 585.2496,-144.6505"/>
<text text-anchor="middle" x="364.9292" y="-168.2" font-family="Times,serif" font-size="14.00" fill="#000000">b</text>
</g>
<!-- 2&#45;&gt;2 -->
<g id="edge4" class="edge">
<title>2&#45;&gt;2</title>
<path fill="none" stroke="#000000" d="M210.8599,-101.4099C209.2603,-111.0879 212.1167,-120 219.4292,-120 223.9995,-120 226.8292,-116.5187 227.9182,-111.5449"/>
<polygon fill="#000000" stroke="#000000" points="231.4191,-111.4374 227.9985,-101.4099 224.4193,-111.3818 231.4191,-111.4374"/>
<text text-anchor="middle" x="219.4292" y="-124.2" font-family="Times,serif" font-size="14.00" fill="#000000">a</text>
</g>
<!-- 4 -->
<g id="node5" class="node">
<title>4</title>
<ellipse fill="none" stroke="#000000" cx="316.4292" cy="-84" rx="27" ry="18"/>
<text text-anchor="middle" x="316.4292" y="-79.8" font-family="Times,serif" font-size="14.00" fill="#000000">4</text>
</g>
<!-- 2&#45;&gt;4 -->
<g id="edge5" class="edge">
<title>2&#45;&gt;4</title>
<path fill="none" stroke="#000000" d="M246.4491,-84C256.5596,-84 268.2308,-84 279.1086,-84"/>
<polygon fill="#000000" stroke="#000000" points="279.2178,-87.5001 289.2178,-84 279.2177,-80.5001 279.2178,-87.5001"/>
<text text-anchor="middle" x="267.9292" y="-88.2" font-family="Times,serif" font-size="14.00" fill="#000000">b</text>
</g>
<!-- 3&#45;&gt;4 -->
<g id="edge7" class="edge">
<title>3&#45;&gt;4</title>
<path fill="none" stroke="#000000" d="M584.7619,-120.6851C539.0215,-114.9535 442.68,-102.6805 361.4292,-91 358.7341,-90.6126 355.9498,-90.2027 353.1491,-89.7834"/>
<polygon fill="#000000" stroke="#000000" points="353.4775,-86.2932 343.0644,-88.2473 352.4233,-93.2133 353.4775,-86.2932"/>
<text text-anchor="middle" x="461.9292" y="-109.2" font-family="Times,serif" font-size="14.00" fill="#000000">b</text>
</g>
<!-- 5 -->
<g id="node6" class="node">
<title>5</title>
<ellipse fill="none" stroke="#000000" cx="413.4292" cy="-55" rx="27" ry="18"/>
<text text-anchor="middle" x="413.4292" y="-50.8" font-family="Times,serif" font-size="14.00" fill="#000000">5</text>
</g>
<!-- 3&#45;&gt;5 -->
<g id="edge6" class="edge">
<title>3&#45;&gt;5</title>
<path fill="none" stroke="#000000" d="M587.2619,-115.5781C552.1976,-103.3587 487.0676,-80.6619 447.2515,-66.7866"/>
<polygon fill="#000000" stroke="#000000" points="448.3027,-63.4465 437.7079,-63.4608 445.9991,-70.0566 448.3027,-63.4465"/>
<text text-anchor="middle" x="510.4292" y="-101.2" font-family="Times,serif" font-size="14.00" fill="#000000">a</text>
</g>
<!-- 4&#45;&gt;4 -->
<g id="edge8" class="edge">
<title>4&#45;&gt;4</title>
<path fill="none" stroke="#000000" d="M307.8599,-101.4099C306.2603,-111.0879 309.1167,-120 316.4292,-120 320.9995,-120 323.8292,-116.5187 324.9182,-111.5449"/>
<polygon fill="#000000" stroke="#000000" points="328.4191,-111.4374 324.9985,-101.4099 321.4193,-111.3818 328.4191,-111.4374"/>
<text text-anchor="middle" x="316.4292" y="-124.2" font-family="Times,serif" font-size="14.00" fill="#000000">b</text>
</g>
<!-- 4&#45;&gt;5 -->
<g id="edge9" class="edge">
<title>4&#45;&gt;5</title>
<path fill="none" stroke="#000000" d="M341.1574,-76.607C352.6728,-73.1643 366.5637,-69.0113 379.0774,-65.2701"/>
<polygon fill="#000000" stroke="#000000" points="380.1678,-68.5973 388.7462,-62.3795 378.1626,-61.8906 380.1678,-68.5973"/>
<text text-anchor="middle" x="364.9292" y="-74.2" font-family="Times,serif" font-size="14.00" fill="#000000">a</text>
</g>
<!-- 5&#45;&gt;2 -->
<g id="edge11" class="edge">
<title>5&#45;&gt;2</title>
<path fill="none" stroke="#000000" d="M389.2062,-46.5591C363.877,-39.0096 323.1882,-30.5087 289.4292,-40.2 273.1956,-44.8602 257.0783,-54.5075 244.4085,-63.5647"/>
<polygon fill="#000000" stroke="#000000" points="242.1475,-60.8848 236.2287,-69.6722 246.3356,-66.4938 242.1475,-60.8848"/>
<text text-anchor="middle" x="316.4292" y="-45.2" font-family="Times,serif" font-size="14.00" fill="#000000">a</text>
</g>
<!-- 6 -->
<g id="node7" class="node">
<title>6</title>
<ellipse fill="none" stroke="#000000" cx="510.4292" cy="-22" rx="27" ry="18"/>
<text text-anchor="middle" x="510.4292" y="-17.8" font-family="Times,serif" font-size="14.00" fill="#000000">6</text>
</g>
<!-- 5&#45;&gt;6 -->
<g id="edge10" class="edge">
<title>5&#45;&gt;6</title>
<path fill="none" stroke="#000000" d="M437.9064,-46.6727C449.5977,-42.6952 463.7806,-37.8701 476.4924,-33.5455"/>
<polygon fill="#000000" stroke="#000000" points="477.956,-36.7447 486.2959,-30.2103 475.7014,-30.1177 477.956,-36.7447"/>
<text text-anchor="middle" x="461.9292" y="-44.2" font-family="Times,serif" font-size="14.00" fill="#000000">b</text>
</g>
<!-- 6&#45;&gt;3 -->
<g id="edge13" class="edge">
<title>6&#45;&gt;3</title>
<path fill="none" stroke="#000000" d="M525.3321,-37.0505C542.19,-54.0753 569.816,-81.9747 589.2179,-101.5688"/>
<polygon fill="#000000" stroke="#000000" points="586.9419,-104.2446 596.4652,-108.8878 591.916,-99.3193 586.9419,-104.2446"/>
<text text-anchor="middle" x="558.9292" y="-77.2" font-family="Times,serif" font-size="14.00" fill="#000000">b</text>
</g>
<!-- 7 -->
<g id="node8" class="node">
<title>7</title>
<ellipse fill="none" stroke="#000000" cx="611.4292" cy="-22" rx="27" ry="18"/>
<ellipse fill="none" stroke="#000000" cx="611.4292" cy="-22" rx="31" ry="22"/>
<text text-anchor="middle" x="611.4292" y="-17.8" font-family="Times,serif" font-size="14.00" fill="#000000">7</text>
</g>
<!-- 6&#45;&gt;7 -->
<g id="edge12" class="edge">
<title>6&#45;&gt;7</title>
<path fill="none" stroke="#000000" d="M537.4953,-22C547.5028,-22 559.0879,-22 570.0753,-22"/>
<polygon fill="#000000" stroke="#000000" points="570.3556,-25.5001 580.3556,-22 570.3555,-18.5001 570.3556,-25.5001"/>
<text text-anchor="middle" x="558.9292" y="-26.2" font-family="Times,serif" font-size="14.00" fill="#000000">a</text>
</g>
<!-- 7&#45;&gt;7 -->
<g id="edge14" class="edge">
<title>7&#45;&gt;7</title>
<path fill="none" stroke="#000000" d="M601.9172,-42.9908C600.7429,-53.0872 603.9136,-62 611.4292,-62 616.2439,-62 619.2754,-58.3422 620.5238,-53.0587"/>
<polygon fill="#000000" stroke="#000000" points="624.0238,-53.1272 620.9412,-42.9908 617.0298,-52.8372 624.0238,-53.1272"/>
<text text-anchor="middle" x="611.4292" y="-66.2" font-family="Times,serif" font-size="14.00" fill="#000000">a,b</text>
</g>
</g>
</svg>
