<?xml version="1.0" encoding="UTF-8" standalone="no"?>
<!DOCTYPE svg PUBLIC "-//W3C//DTD SVG 1.1//EN"
 "http://www.w3.org/Graphics/SVG/1.1/DTD/svg11.dtd">
<!-- Generated by graphviz version 2.40.1 (20161225.0304)
 -->
<!-- Title: G Pages: 1 -->
<svg width="466pt" height="162pt"
 viewBox="0.00 0.00 466.00 162.00" xmlns="http://www.w3.org/2000/svg" xmlns:xlink="http://www.w3.org/1999/xlink">
<g id="graph0" class="graph" transform="scale(1 1) rotate(0) translate(4 158)">
<title>G</title>
<polygon fill="#ffffff" stroke="transparent" points="-4,4 -4,-158 462,-158 462,4 -4,4"/>
<!-- 0 -->
<g id="node1" class="node">
<title>0</title>
<ellipse fill="none" stroke="#000000" cx="27" cy="-62" rx="27" ry="18"/>
<text text-anchor="middle" x="27" y="-57.8" font-family="Times,serif" font-size="14.00" fill="#000000">0</text>
</g>
<!-- 1 -->
<g id="node2" class="node">
<title>1</title>
<ellipse fill="none" stroke="#000000" cx="124" cy="-136" rx="27" ry="18"/>
<text text-anchor="middle" x="124" y="-131.8" font-family="Times,serif" font-size="14.00" fill="#000000">1</text>
</g>
<!-- 0&#45;&gt;1 -->
<g id="edge1" class="edge">
<title>0&#45;&gt;1</title>
<path fill="none" stroke="#000000" d="M42.2468,-77.1163C50.7011,-85.1779 61.5845,-95.0458 72,-103 79.146,-108.4573 87.2083,-113.8901 94.8139,-118.7258"/>
<polygon fill="#000000" stroke="#000000" points="93.1093,-121.7872 103.4501,-124.0937 96.8046,-115.8421 93.1093,-121.7872"/>
<text text-anchor="middle" x="75.5" y="-111.2" font-family="Times,serif" font-size="14.00" fill="#000000">1</text>
</g>
<!-- 2 -->
<g id="node3" class="node">
<title>2</title>
<ellipse fill="none" stroke="#000000" cx="124" cy="-82" rx="27" ry="18"/>
<text text-anchor="middle" x="124" y="-77.8" font-family="Times,serif" font-size="14.00" fill="#000000">2</text>
</g>
<!-- 0&#45;&gt;2 -->
<g id="edge2" class="edge">
<title>0&#45;&gt;2</title>
<path fill="none" stroke="#000000" d="M48.9596,-72.5257C56.1412,-75.4915 64.2634,-78.3553 72,-80 76.7223,-81.0039 81.7388,-81.6759 86.7211,-82.1107"/>
<polygon fill="#000000" stroke="#000000" points="86.6068,-85.6099 96.7944,-82.7006 87.0161,-78.6219 86.6068,-85.6099"/>
<text text-anchor="middle" x="75.5" y="-86.2" font-family="Times,serif" font-size="14.00" fill="#000000">0</text>
</g>
<!-- 3 -->
<g id="node4" class="node">
<title>3</title>
<ellipse fill="none" stroke="#000000" cx="221" cy="-97" rx="27" ry="18"/>
<text text-anchor="middle" x="221" y="-92.8" font-family="Times,serif" font-size="14.00" fill="#000000">3</text>
</g>
<!-- 1&#45;&gt;3 -->
<g id="edge3" class="edge">
<title>1&#45;&gt;3</title>
<path fill="none" stroke="#000000" d="M147.481,-126.5592C159.7531,-121.625 174.9683,-115.5076 188.3675,-110.1203"/>
<polygon fill="#000000" stroke="#000000" points="189.7627,-113.3317 197.7352,-106.3539 187.1514,-106.837 189.7627,-113.3317"/>
<text text-anchor="middle" x="172.5" y="-121.2" font-family="Times,serif" font-size="14.00" fill="#000000">1</text>
</g>
<!-- 4 -->
<g id="node5" class="node">
<title>4</title>
<ellipse fill="none" stroke="#000000" cx="221" cy="-34" rx="27" ry="18"/>
<text text-anchor="middle" x="221" y="-29.8" font-family="Times,serif" font-size="14.00" fill="#000000">4</text>
</g>
<!-- 1&#45;&gt;4 -->
<g id="edge4" class="edge">
<title>1&#45;&gt;4</title>
<path fill="none" stroke="#000000" d="M139.2295,-120.9541C143.0955,-117.0846 147.2231,-112.9094 151,-109 167.6023,-91.8153 186.0277,-72.0449 199.8059,-57.1181"/>
<polygon fill="#000000" stroke="#000000" points="202.741,-59.0977 206.9413,-49.371 197.5921,-54.3554 202.741,-59.0977"/>
<text text-anchor="middle" x="172.5" y="-93.2" font-family="Times,serif" font-size="14.00" fill="#000000">0</text>
</g>
<!-- 2&#45;&gt;0 -->
<g id="edge5" class="edge">
<title>2&#45;&gt;0</title>
<path fill="none" stroke="#000000" d="M104.1716,-69.4276C96.5975,-65.3167 87.6888,-61.2755 79,-59.2 74.1444,-58.0401 68.9641,-57.5108 63.8252,-57.3941"/>
<polygon fill="#000000" stroke="#000000" points="63.3576,-53.905 53.4521,-57.6642 63.5398,-60.9027 63.3576,-53.905"/>
<text text-anchor="middle" x="75.5" y="-64.2" font-family="Times,serif" font-size="14.00" fill="#000000">1</text>
</g>
<!-- 5 -->
<g id="node6" class="node">
<title>5</title>
<ellipse fill="none" stroke="#000000" cx="322" cy="-97" rx="27" ry="18"/>
<ellipse fill="none" stroke="#000000" cx="322" cy="-97" rx="31" ry="22"/>
<text text-anchor="middle" x="322" y="-92.8" font-family="Times,serif" font-size="14.00" fill="#000000">5</text>
</g>
<!-- 3&#45;&gt;5 -->
<g id="edge6" class="edge">
<title>3&#45;&gt;5</title>
<path fill="none" stroke="#000000" d="M248.0661,-97C258.0736,-97 269.6587,-97 280.6461,-97"/>
<polygon fill="#000000" stroke="#000000" points="280.9264,-100.5001 290.9264,-97 280.9263,-93.5001 280.9264,-100.5001"/>
<text text-anchor="middle" x="269.5" y="-101.2" font-family="Times,serif" font-size="14.00" fill="#000000">1</text>
</g>
<!-- 6 -->
<g id="node7" class="node">
<title>6</title>
<ellipse fill="none" stroke="#000000" cx="322" cy="-18" rx="27" ry="18"/>
<text text-anchor="middle" x="322" y="-13.8" font-family="Times,serif" font-size="14.00" fill="#000000">6</text>
</g>
<!-- 3&#45;&gt;6 -->
<g id="edge7" class="edge">
<title>3&#45;&gt;6</title>
<path fill="none" stroke="#000000" d="M238.5929,-83.2393C254.4267,-70.8544 277.9052,-52.49 295.9216,-38.3979"/>
<polygon fill="#000000" stroke="#000000" points="298.5495,-40.786 304.2699,-31.8681 294.2368,-35.2723 298.5495,-40.786"/>
<text text-anchor="middle" x="269.5" y="-64.2" font-family="Times,serif" font-size="14.00" fill="#000000">0</text>
</g>
<!-- 4&#45;&gt;0 -->
<g id="edge8" class="edge">
<title>4&#45;&gt;0</title>
<path fill="none" stroke="#000000" d="M193.6628,-32.642C168.3726,-31.9232 129.843,-32.1965 97,-38.2 84.4995,-40.485 71.1987,-44.562 59.5862,-48.7033"/>
<polygon fill="#000000" stroke="#000000" points="58.0298,-45.5479 49.8783,-52.3158 60.4711,-52.1085 58.0298,-45.5479"/>
<text text-anchor="middle" x="124" y="-43.2" font-family="Times,serif" font-size="14.00" fill="#000000">1</text>
</g>
<!-- 5&#45;&gt;5 -->
<g id="edge9" class="edge">
<title>5&#45;&gt;5</title>
<path fill="none" stroke="#000000" d="M312.488,-117.9908C311.3137,-128.0872 314.4844,-137 322,-137 326.8147,-137 329.8462,-133.3422 331.0946,-128.0587"/>
<polygon fill="#000000" stroke="#000000" points="334.5946,-128.1272 331.512,-117.9908 327.6006,-127.8372 334.5946,-128.1272"/>
<text text-anchor="middle" x="322" y="-141.2" font-family="Times,serif" font-size="14.00" fill="#000000">1</text>
</g>
<!-- 7 -->
<g id="node8" class="node">
<title>7</title>
<ellipse fill="none" stroke="#000000" cx="427" cy="-97" rx="27" ry="18"/>
<ellipse fill="none" stroke="#000000" cx="427" cy="-97" rx="31" ry="22"/>
<text text-anchor="middle" x="427" y="-92.8" font-family="Times,serif" font-size="14.00" fill="#000000">7</text>
</g>
<!-- 5&#45;&gt;7 -->
<g id="edge10" class="edge">
<title>5&#45;&gt;7</title>
<path fill="none" stroke="#000000" d="M353.2192,-97C363.3892,-97 374.8417,-97 385.6358,-97"/>
<polygon fill="#000000" stroke="#000000" points="385.7198,-100.5001 395.7198,-97 385.7198,-93.5001 385.7198,-100.5001"/>
<text text-anchor="middle" x="374.5" y="-101.2" font-family="Times,serif" font-size="14.00" fill="#000000">0</text>
</g>
<!-- 6&#45;&gt;0 -->
<g id="edge11" class="edge">
<title>6&#45;&gt;0</title>
<path fill="none" stroke="#000000" d="M295.7341,-13.1315C281.6375,-10.763 263.9322,-8.1777 248,-7 180.3649,-2.0005 161.6922,-8.6427 97,-29 83.4491,-33.2642 69.1507,-39.6354 57.0338,-45.6457"/>
<polygon fill="#000000" stroke="#000000" points="55.1537,-42.6758 47.84,-50.3413 58.3377,-48.9098 55.1537,-42.6758"/>
<text text-anchor="middle" x="172.5" y="-13.2" font-family="Times,serif" font-size="14.00" fill="#000000">1</text>
</g>
<!-- 7&#45;&gt;5 -->
<g id="edge12" class="edge">
<title>7&#45;&gt;5</title>
<path fill="none" stroke="#000000" d="M404.0411,-82.2013C394.0907,-77.446 382.1793,-73.9255 371,-76.2 366.2682,-77.1627 361.4267,-78.5989 356.7174,-80.2753"/>
<polygon fill="#000000" stroke="#000000" points="355.336,-77.0576 347.3142,-83.9786 357.9011,-83.5707 355.336,-77.0576"/>
<text text-anchor="middle" x="374.5" y="-81.2" font-family="Times,serif" font-size="14.00" fill="#000000">1</text>
</g>
</g>
</svg>
