<?xml version="1.0" encoding="UTF-8" standalone="no"?>
<!DOCTYPE svg PUBLIC "-//W3C//DTD SVG 1.1//EN"
 "http://www.w3.org/Graphics/SVG/1.1/DTD/svg11.dtd">
<!-- Generated by graphviz version 2.40.1 (20161225.0304)
 -->
<!-- Title: G Pages: 1 -->
<svg width="718pt" height="174pt"
 viewBox="0.00 0.00 718.21 174.00" xmlns="http://www.w3.org/2000/svg" xmlns:xlink="http://www.w3.org/1999/xlink">
<g id="graph0" class="graph" transform="scale(1 1) rotate(0) translate(4 170)">
<title>G</title>
<polygon fill="#ffffff" stroke="transparent" points="-4,4 -4,-170 714.2146,-170 714.2146,4 -4,4"/>
<!-- 0 -->
<g id="node1" class="node">
<title>0</title>
<ellipse fill="none" stroke="#000000" cx="27" cy="-22" rx="27" ry="18"/>
<text text-anchor="middle" x="27" y="-17.8" font-family="Times,serif" font-size="14.00" fill="#000000">0</text>
</g>
<!-- 1 -->
<g id="node2" class="node">
<title>1</title>
<ellipse fill="none" stroke="#000000" cx="118" cy="-69" rx="27" ry="18"/>
<text text-anchor="middle" x="118" y="-64.8" font-family="Times,serif" font-size="14.00" fill="#000000">1</text>
</g>
<!-- 0&#45;&gt;1 -->
<g id="edge1" class="edge">
<title>0&#45;&gt;1</title>
<path fill="none" stroke="#000000" d="M48.5657,-33.1383C60.2386,-39.1672 74.8496,-46.7135 87.6533,-53.3264"/>
<polygon fill="#000000" stroke="#000000" points="86.098,-56.4624 96.5891,-57.9416 89.3103,-50.2429 86.098,-56.4624"/>
</g>
<!-- 11 -->
<g id="node12" class="node">
<title>11</title>
<ellipse fill="none" stroke="#000000" cx="679.2146" cy="-22" rx="27" ry="18"/>
<ellipse fill="none" stroke="#000000" cx="679.2146" cy="-22" rx="31" ry="22"/>
<text text-anchor="middle" x="679.2146" y="-17.8" font-family="Times,serif" font-size="14.00" fill="#000000">11</text>
</g>
<!-- 0&#45;&gt;11 -->
<g id="edge2" class="edge">
<title>0&#45;&gt;11</title>
<path fill="none" stroke="#000000" d="M53.1621,-16.7017C71.2837,-13.4871 96.0092,-10 118,-10 118,-10 118,-10 584.2146,-10 602.2492,-10 622.0588,-12.1549 638.9004,-14.6384"/>
<polygon fill="#000000" stroke="#000000" points="638.5402,-18.1246 648.9608,-16.2109 639.6212,-11.2085 638.5402,-18.1246"/>
</g>
<!-- 2 -->
<g id="node3" class="node">
<title>2</title>
<ellipse fill="none" stroke="#000000" cx="209" cy="-148" rx="27" ry="18"/>
<text text-anchor="middle" x="209" y="-143.8" font-family="Times,serif" font-size="14.00" fill="#000000">2</text>
</g>
<!-- 1&#45;&gt;2 -->
<g id="edge3" class="edge">
<title>1&#45;&gt;2</title>
<path fill="none" stroke="#000000" d="M134.6908,-83.4898C148.6729,-95.6281 168.8209,-113.1192 184.6109,-126.827"/>
<polygon fill="#000000" stroke="#000000" points="182.5691,-129.6894 192.415,-133.602 187.1581,-124.4034 182.5691,-129.6894"/>
</g>
<!-- 6 -->
<g id="node7" class="node">
<title>6</title>
<ellipse fill="none" stroke="#000000" cx="209" cy="-94" rx="27" ry="18"/>
<text text-anchor="middle" x="209" y="-89.8" font-family="Times,serif" font-size="14.00" fill="#000000">6</text>
</g>
<!-- 1&#45;&gt;6 -->
<g id="edge4" class="edge">
<title>1&#45;&gt;6</title>
<path fill="none" stroke="#000000" d="M143.3486,-75.9639C152.8148,-78.5645 163.7394,-81.5658 173.9269,-84.3645"/>
<polygon fill="#000000" stroke="#000000" points="173.2174,-87.7992 183.7874,-87.0735 175.0718,-81.0493 173.2174,-87.7992"/>
</g>
<!-- 3 -->
<g id="node4" class="node">
<title>3</title>
<ellipse fill="none" stroke="#000000" cx="305.2146" cy="-148" rx="27" ry="18"/>
<text text-anchor="middle" x="305.2146" y="-143.8" font-family="Times,serif" font-size="14.00" fill="#000000">3</text>
</g>
<!-- 2&#45;&gt;3 -->
<g id="edge5" class="edge">
<title>2&#45;&gt;3</title>
<path fill="none" stroke="#000000" d="M236.0572,-148C245.8952,-148 257.1961,-148 267.7729,-148"/>
<polygon fill="#000000" stroke="#000000" points="268.0272,-151.5001 278.0271,-148 268.0271,-144.5001 268.0272,-151.5001"/>
<text text-anchor="middle" x="257.1073" y="-152.2" font-family="Times,serif" font-size="14.00" fill="#000000">a</text>
</g>
<!-- 4 -->
<g id="node5" class="node">
<title>4</title>
<ellipse fill="none" stroke="#000000" cx="396.2146" cy="-148" rx="27" ry="18"/>
<text text-anchor="middle" x="396.2146" y="-143.8" font-family="Times,serif" font-size="14.00" fill="#000000">4</text>
</g>
<!-- 3&#45;&gt;4 -->
<g id="edge6" class="edge">
<title>3&#45;&gt;4</title>
<path fill="none" stroke="#000000" d="M332.5176,-148C340.7959,-148 350.0363,-148 358.8551,-148"/>
<polygon fill="#000000" stroke="#000000" points="358.9309,-151.5001 368.9309,-148 358.9308,-144.5001 358.9309,-151.5001"/>
</g>
<!-- 5 -->
<g id="node6" class="node">
<title>5</title>
<ellipse fill="none" stroke="#000000" cx="493.2146" cy="-148" rx="27" ry="18"/>
<text text-anchor="middle" x="493.2146" y="-143.8" font-family="Times,serif" font-size="14.00" fill="#000000">5</text>
</g>
<!-- 4&#45;&gt;5 -->
<g id="edge7" class="edge">
<title>4&#45;&gt;5</title>
<path fill="none" stroke="#000000" d="M423.2345,-148C433.345,-148 445.0162,-148 455.894,-148"/>
<polygon fill="#000000" stroke="#000000" points="456.0032,-151.5001 466.0032,-148 456.0031,-144.5001 456.0032,-151.5001"/>
<text text-anchor="middle" x="444.7146" y="-152.2" font-family="Times,serif" font-size="14.00" fill="#000000">b</text>
</g>
<!-- 10 -->
<g id="node11" class="node">
<title>10</title>
<ellipse fill="none" stroke="#000000" cx="584.2146" cy="-64" rx="27" ry="18"/>
<text text-anchor="middle" x="584.2146" y="-59.8" font-family="Times,serif" font-size="14.00" fill="#000000">10</text>
</g>
<!-- 5&#45;&gt;10 -->
<g id="edge8" class="edge">
<title>5&#45;&gt;10</title>
<path fill="none" stroke="#000000" d="M509.0656,-133.3683C523.3317,-120.1996 544.4856,-100.6729 560.7183,-85.6889"/>
<polygon fill="#000000" stroke="#000000" points="563.2659,-88.1005 568.2399,-78.7459 558.5179,-82.9569 563.2659,-88.1005"/>
</g>
<!-- 7 -->
<g id="node8" class="node">
<title>7</title>
<ellipse fill="none" stroke="#000000" cx="305.2146" cy="-94" rx="27" ry="18"/>
<text text-anchor="middle" x="305.2146" y="-89.8" font-family="Times,serif" font-size="14.00" fill="#000000">7</text>
</g>
<!-- 6&#45;&gt;7 -->
<g id="edge9" class="edge">
<title>6&#45;&gt;7</title>
<path fill="none" stroke="#000000" d="M236.0572,-94C245.8952,-94 257.1961,-94 267.7729,-94"/>
<polygon fill="#000000" stroke="#000000" points="268.0272,-97.5001 278.0271,-94 268.0271,-90.5001 268.0272,-97.5001"/>
<text text-anchor="middle" x="257.1073" y="-98.2" font-family="Times,serif" font-size="14.00" fill="#000000">a</text>
</g>
<!-- 8 -->
<g id="node9" class="node">
<title>8</title>
<ellipse fill="none" stroke="#000000" cx="396.2146" cy="-94" rx="27" ry="18"/>
<text text-anchor="middle" x="396.2146" y="-89.8" font-family="Times,serif" font-size="14.00" fill="#000000">8</text>
</g>
<!-- 7&#45;&gt;8 -->
<g id="edge10" class="edge">
<title>7&#45;&gt;8</title>
<path fill="none" stroke="#000000" d="M332.5176,-94C340.7959,-94 350.0363,-94 358.8551,-94"/>
<polygon fill="#000000" stroke="#000000" points="358.9309,-97.5001 368.9309,-94 358.9308,-90.5001 358.9309,-97.5001"/>
</g>
<!-- 9 -->
<g id="node10" class="node">
<title>9</title>
<ellipse fill="none" stroke="#000000" cx="493.2146" cy="-94" rx="27" ry="18"/>
<text text-anchor="middle" x="493.2146" y="-89.8" font-family="Times,serif" font-size="14.00" fill="#000000">9</text>
</g>
<!-- 8&#45;&gt;9 -->
<g id="edge11" class="edge">
<title>8&#45;&gt;9</title>
<path fill="none" stroke="#000000" d="M423.2345,-94C433.345,-94 445.0162,-94 455.894,-94"/>
<polygon fill="#000000" stroke="#000000" points="456.0032,-97.5001 466.0032,-94 456.0031,-90.5001 456.0032,-97.5001"/>
<text text-anchor="middle" x="444.7146" y="-98.2" font-family="Times,serif" font-size="14.00" fill="#000000">c</text>
</g>
<!-- 9&#45;&gt;10 -->
<g id="edge12" class="edge">
<title>9&#45;&gt;10</title>
<path fill="none" stroke="#000000" d="M517.6009,-85.9606C527.5973,-82.665 539.3407,-78.7936 550.1606,-75.2266"/>
<polygon fill="#000000" stroke="#000000" points="551.3596,-78.5167 559.761,-72.0616 549.1679,-71.8686 551.3596,-78.5167"/>
</g>
<!-- 10&#45;&gt;1 -->
<g id="edge14" class="edge">
<title>10&#45;&gt;1</title>
<path fill="none" stroke="#000000" d="M558.9273,-57.1217C540.7821,-52.7852 515.6719,-48 493.2146,-48 209,-48 209,-48 209,-48 189.7993,-48 168.8898,-52.4937 151.9612,-57.3236"/>
<polygon fill="#000000" stroke="#000000" points="150.5465,-54.0947 141.9861,-60.3373 152.571,-60.7956 150.5465,-54.0947"/>
</g>
<!-- 10&#45;&gt;11 -->
<g id="edge13" class="edge">
<title>10&#45;&gt;11</title>
<path fill="none" stroke="#000000" d="M606.7283,-54.0466C617.7466,-49.1753 631.2725,-43.1955 643.644,-37.726"/>
<polygon fill="#000000" stroke="#000000" points="645.088,-40.9144 652.8188,-33.6697 642.2575,-34.5122 645.088,-40.9144"/>
</g>
</g>
</svg>
