<?xml version="1.0" encoding="UTF-8" standalone="no"?>
<!DOCTYPE svg PUBLIC "-//W3C//DTD SVG 1.1//EN"
 "http://www.w3.org/Graphics/SVG/1.1/DTD/svg11.dtd">
<!-- Generated by graphviz version 2.40.1 (20161225.0304)
 -->
<!-- Title: G Pages: 1 -->
<svg width="263pt" height="123pt"
 viewBox="0.00 0.00 263.21 123.00" xmlns="http://www.w3.org/2000/svg" xmlns:xlink="http://www.w3.org/1999/xlink">
<g id="graph0" class="graph" transform="scale(1 1) rotate(0) translate(4 119)">
<title>G</title>
<polygon fill="#ffffff" stroke="transparent" points="-4,4 -4,-119 259.2146,-119 259.2146,4 -4,4"/>
<!-- 0 -->
<g id="node1" class="node">
<title>0</title>
<ellipse fill="none" stroke="#000000" cx="27" cy="-58" rx="27" ry="18"/>
<text text-anchor="middle" x="27" y="-53.8" font-family="Times,serif" font-size="14.00" fill="#000000">0</text>
</g>
<!-- 1 -->
<g id="node2" class="node">
<title>1</title>
<ellipse fill="none" stroke="#000000" cx="123.2146" cy="-58" rx="27" ry="18"/>
<text text-anchor="middle" x="123.2146" y="-53.8" font-family="Times,serif" font-size="14.00" fill="#000000">1</text>
</g>
<!-- 0&#45;&gt;1 -->
<g id="edge1" class="edge">
<title>0&#45;&gt;1</title>
<path fill="none" stroke="#000000" d="M54.0572,-58C63.8952,-58 75.1961,-58 85.7729,-58"/>
<polygon fill="#000000" stroke="#000000" points="86.0272,-61.5001 96.0271,-58 86.0271,-54.5001 86.0272,-61.5001"/>
<text text-anchor="middle" x="75.1073" y="-62.2" font-family="Times,serif" font-size="14.00" fill="#000000">a</text>
</g>
<!-- 2 -->
<g id="node3" class="node">
<title>2</title>
<ellipse fill="none" stroke="#000000" cx="224.2146" cy="-93" rx="27" ry="18"/>
<ellipse fill="none" stroke="#000000" cx="224.2146" cy="-93" rx="31" ry="22"/>
<text text-anchor="middle" x="224.2146" y="-88.8" font-family="Times,serif" font-size="14.00" fill="#000000">2</text>
</g>
<!-- 1&#45;&gt;2 -->
<g id="edge2" class="edge">
<title>1&#45;&gt;2</title>
<path fill="none" stroke="#000000" d="M136.881,-74.0216C145.0243,-82.2999 156.1145,-91.5745 168.2146,-96 173.1737,-97.8137 178.5449,-98.7243 183.9312,-99.0331"/>
<polygon fill="#000000" stroke="#000000" points="184.2268,-102.5313 194.2031,-98.9642 184.1798,-95.5314 184.2268,-102.5313"/>
<text text-anchor="middle" x="171.7146" y="-101.2" font-family="Times,serif" font-size="14.00" fill="#000000">b</text>
</g>
<!-- 3 -->
<g id="node4" class="node">
<title>3</title>
<ellipse fill="none" stroke="#000000" cx="224.2146" cy="-22" rx="27" ry="18"/>
<ellipse fill="none" stroke="#000000" cx="224.2146" cy="-22" rx="31" ry="22"/>
<text text-anchor="middle" x="224.2146" y="-17.8" font-family="Times,serif" font-size="14.00" fill="#000000">3</text>
</g>
<!-- 1&#45;&gt;3 -->
<g id="edge3" class="edge">
<title>1&#45;&gt;3</title>
<path fill="none" stroke="#000000" d="M147.1502,-49.4685C158.8644,-45.2931 173.2445,-40.1675 186.3974,-35.4794"/>
<polygon fill="#000000" stroke="#000000" points="187.9073,-38.657 196.1517,-32.0026 185.5571,-32.0633 187.9073,-38.657"/>
<text text-anchor="middle" x="171.7146" y="-46.2" font-family="Times,serif" font-size="14.00" fill="#000000">c</text>
</g>
<!-- 2&#45;&gt;1 -->
<g id="edge4" class="edge">
<title>2&#45;&gt;1</title>
<path fill="none" stroke="#000000" d="M196.5368,-82.787C189.5895,-80.2673 182.1408,-77.6029 175.2146,-75.2 169.4595,-73.2034 163.3285,-71.1289 157.3699,-69.1406"/>
<polygon fill="#000000" stroke="#000000" points="158.1953,-65.7271 147.602,-65.9048 155.994,-72.372 158.1953,-65.7271"/>
<text text-anchor="middle" x="171.7146" y="-79.2" font-family="Times,serif" font-size="14.00" fill="#000000">a</text>
</g>
<!-- 3&#45;&gt;1 -->
<g id="edge5" class="edge">
<title>3&#45;&gt;1</title>
<path fill="none" stroke="#000000" d="M194.1815,-16.1274C185.5785,-15.6013 176.3357,-16.1823 168.2146,-19.2 159.3186,-22.5056 151.0048,-28.4464 144.0038,-34.7013"/>
<polygon fill="#000000" stroke="#000000" points="141.1708,-32.5734 136.4318,-42.0493 146.0457,-37.5969 141.1708,-32.5734"/>
<text text-anchor="middle" x="171.7146" y="-24.2" font-family="Times,serif" font-size="14.00" fill="#000000">a</text>
</g>
</g>
</svg>
