<?xml version="1.0" encoding="UTF-8" standalone="no"?>
<!DOCTYPE svg PUBLIC "-//W3C//DTD SVG 1.1//EN"
 "http://www.w3.org/Graphics/SVG/1.1/DTD/svg11.dtd">
<!-- Generated by graphviz version 2.40.1 (20161225.0304)
 -->
<!-- Title: G Pages: 1 -->
<svg width="273pt" height="52pt"
 viewBox="0.00 0.00 272.93 52.34" xmlns="http://www.w3.org/2000/svg" xmlns:xlink="http://www.w3.org/1999/xlink">
<g id="graph0" class="graph" transform="scale(1 1) rotate(0) translate(4 48.3423)">
<title>G</title>
<polygon fill="#ffffff" stroke="transparent" points="-4,4 -4,-48.3423 268.9292,-48.3423 268.9292,4 -4,4"/>
<!-- 0 -->
<g id="node1" class="node">
<title>0</title>
<ellipse fill="none" stroke="#000000" cx="27" cy="-22.3423" rx="27" ry="18"/>
<text text-anchor="middle" x="27" y="-18.1423" font-family="Times,serif" font-size="14.00" fill="#000000">0</text>
</g>
<!-- 1 -->
<g id="node2" class="node">
<title>1</title>
<ellipse fill="none" stroke="#000000" cx="123.2146" cy="-22.3423" rx="27" ry="18"/>
<text text-anchor="middle" x="123.2146" y="-18.1423" font-family="Times,serif" font-size="14.00" fill="#000000">1</text>
</g>
<!-- 0&#45;&gt;1 -->
<g id="edge1" class="edge">
<title>0&#45;&gt;1</title>
<path fill="none" stroke="#000000" d="M54.0572,-22.3423C63.8952,-22.3423 75.1961,-22.3423 85.7729,-22.3423"/>
<polygon fill="#000000" stroke="#000000" points="86.0272,-25.8423 96.0271,-22.3423 86.0271,-18.8423 86.0272,-25.8423"/>
<text text-anchor="middle" x="75.1073" y="-26.5423" font-family="Times,serif" font-size="14.00" fill="#000000">a</text>
</g>
<!-- 2 -->
<g id="node3" class="node">
<title>2</title>
<ellipse fill="none" stroke="#000000" cx="233.9292" cy="-22.3423" rx="27" ry="18"/>
<ellipse fill="none" stroke="#000000" cx="233.9292" cy="-22.3423" rx="31" ry="22"/>
<text text-anchor="middle" x="233.9292" y="-18.1423" font-family="Times,serif" font-size="14.00" fill="#000000">2</text>
</g>
<!-- 1&#45;&gt;2 -->
<g id="edge2" class="edge">
<title>1&#45;&gt;2</title>
<path fill="none" stroke="#000000" d="M150.2984,-22.3423C163.0739,-22.3423 178.5956,-22.3423 192.782,-22.3423"/>
<polygon fill="#000000" stroke="#000000" points="192.8175,-25.8424 202.8174,-22.3423 192.8174,-18.8424 192.8175,-25.8424"/>
<text text-anchor="middle" x="176.5719" y="-26.5423" font-family="Times,serif" font-size="14.00" fill="#000000">b,c</text>
</g>
<!-- 2&#45;&gt;1 -->
<g id="edge3" class="edge">
<title>2&#45;&gt;1</title>
<path fill="none" stroke="#000000" d="M209.87,-8.3569C197.5552,-2.8353 182.2394,1.5423 168.2146,-1.5423 163.3235,-2.618 158.331,-4.2793 153.5359,-6.2044"/>
<polygon fill="#000000" stroke="#000000" points="151.7763,-3.1566 144.0662,-10.4233 154.6251,-9.5507 151.7763,-3.1566"/>
<text text-anchor="middle" x="176.5719" y="-5.5423" font-family="Times,serif" font-size="14.00" fill="#000000">a</text>
</g>
</g>
</svg>
