<?xml version="1.0" encoding="UTF-8" standalone="no"?>
<!DOCTYPE svg PUBLIC "-//W3C//DTD SVG 1.1//EN"
 "http://www.w3.org/Graphics/SVG/1.1/DTD/svg11.dtd">
<!-- Generated by graphviz version 2.40.1 (20161225.0304)
 -->
<!-- Title: G Pages: 1 -->
<svg width="474pt" height="84pt"
 viewBox="0.00 0.00 473.55 83.66" xmlns="http://www.w3.org/2000/svg" xmlns:xlink="http://www.w3.org/1999/xlink">
<g id="graph0" class="graph" transform="scale(1 1) rotate(0) translate(4 79.6596)">
<title>G</title>
<polygon fill="#ffffff" stroke="transparent" points="-4,4 -4,-79.6596 469.547,-79.6596 469.547,4 -4,4"/>
<!-- 0 -->
<g id="node1" class="node">
<title>0</title>
<ellipse fill="none" stroke="#000000" cx="27" cy="-22.8596" rx="27" ry="18"/>
<text text-anchor="middle" x="27" y="-18.6596" font-family="Times,serif" font-size="14.00" fill="#000000">0</text>
</g>
<!-- 1 -->
<g id="node2" class="node">
<title>1</title>
<ellipse fill="none" stroke="#000000" cx="120.8906" cy="-22.8596" rx="27" ry="18"/>
<text text-anchor="middle" x="120.8906" y="-18.6596" font-family="Times,serif" font-size="14.00" fill="#000000">1</text>
</g>
<!-- 0&#45;&gt;1 -->
<g id="edge1" class="edge">
<title>0&#45;&gt;1</title>
<path fill="none" stroke="#000000" d="M54.1571,-22.8596C63.4022,-22.8596 73.9006,-22.8596 83.7889,-22.8596"/>
<polygon fill="#000000" stroke="#000000" points="83.7946,-26.3597 93.7946,-22.8596 83.7945,-19.3597 83.7946,-26.3597"/>
<text text-anchor="middle" x="73.9453" y="-27.0596" font-family="Times,serif" font-size="14.00" fill="#000000">/</text>
</g>
<!-- 2 -->
<g id="node3" class="node">
<title>2</title>
<ellipse fill="none" stroke="#000000" cx="217.8906" cy="-22.8596" rx="27" ry="18"/>
<text text-anchor="middle" x="217.8906" y="-18.6596" font-family="Times,serif" font-size="14.00" fill="#000000">2</text>
</g>
<!-- 1&#45;&gt;2 -->
<g id="edge2" class="edge">
<title>1&#45;&gt;2</title>
<path fill="none" stroke="#000000" d="M147.9105,-22.8596C158.021,-22.8596 169.6922,-22.8596 180.57,-22.8596"/>
<polygon fill="#000000" stroke="#000000" points="180.6792,-26.3597 190.6792,-22.8596 180.6791,-19.3597 180.6792,-26.3597"/>
<text text-anchor="middle" x="169.3906" y="-27.0596" font-family="Times,serif" font-size="14.00" fill="#000000">*</text>
</g>
<!-- 2&#45;&gt;2 -->
<g id="edge6" class="edge">
<title>2&#45;&gt;2</title>
<path fill="none" stroke="#000000" d="M209.3213,-40.2695C207.7217,-49.9475 210.5781,-58.8596 217.8906,-58.8596 222.4609,-58.8596 225.2906,-55.3783 226.3796,-50.4046"/>
<polygon fill="#000000" stroke="#000000" points="229.8805,-50.297 226.4599,-40.2695 222.8807,-50.2414 229.8805,-50.297"/>
<text text-anchor="middle" x="217.8906" y="-63.0596" font-family="Times,serif" font-size="14.00" fill="#000000">other</text>
</g>
<!-- 3 -->
<g id="node4" class="node">
<title>3</title>
<ellipse fill="none" stroke="#000000" cx="336.6564" cy="-22.8596" rx="27" ry="18"/>
<text text-anchor="middle" x="336.6564" y="-18.6596" font-family="Times,serif" font-size="14.00" fill="#000000">3</text>
</g>
<!-- 2&#45;&gt;3 -->
<g id="edge3" class="edge">
<title>2&#45;&gt;3</title>
<path fill="none" stroke="#000000" d="M245.1379,-22.8596C261.131,-22.8596 281.5743,-22.8596 299.081,-22.8596"/>
<polygon fill="#000000" stroke="#000000" points="299.5359,-26.3597 309.5359,-22.8596 299.5359,-19.3597 299.5359,-26.3597"/>
<text text-anchor="middle" x="277.2735" y="-27.0596" font-family="Times,serif" font-size="14.00" fill="#000000">*</text>
</g>
<!-- 3&#45;&gt;2 -->
<g id="edge5" class="edge">
<title>3&#45;&gt;2</title>
<path fill="none" stroke="#000000" d="M315.8048,-10.9407C308.4193,-7.3441 299.8941,-3.8714 291.6564,-2.0596 279.17,.6865 275.377,.6865 262.8906,-2.0596 257.9995,-3.1353 253.007,-4.7966 248.2119,-6.7217"/>
<polygon fill="#000000" stroke="#000000" points="246.4523,-3.674 238.7422,-10.9407 249.3011,-10.0681 246.4523,-3.674"/>
<text text-anchor="middle" x="277.2735" y="-6.0596" font-family="Times,serif" font-size="14.00" fill="#000000">other</text>
</g>
<!-- 4 -->
<g id="node5" class="node">
<title>4</title>
<ellipse fill="none" stroke="#000000" cx="434.547" cy="-22.8596" rx="27" ry="18"/>
<ellipse fill="none" stroke="#000000" cx="434.547" cy="-22.8596" rx="31" ry="22"/>
<text text-anchor="middle" x="434.547" y="-18.6596" font-family="Times,serif" font-size="14.00" fill="#000000">4</text>
</g>
<!-- 3&#45;&gt;4 -->
<g id="edge4" class="edge">
<title>3&#45;&gt;4</title>
<path fill="none" stroke="#000000" d="M363.6646,-22.8596C372.821,-22.8596 383.2688,-22.8596 393.2775,-22.8596"/>
<polygon fill="#000000" stroke="#000000" points="393.4761,-26.3597 403.4761,-22.8596 393.4761,-19.3597 393.4761,-26.3597"/>
<text text-anchor="middle" x="383.6017" y="-27.0596" font-family="Times,serif" font-size="14.00" fill="#000000">/</text>
</g>
</g>
</svg>
