<?xml version="1.0" encoding="UTF-8" standalone="no"?>
<!DOCTYPE svg PUBLIC "-//W3C//DTD SVG 1.1//EN"
 "http://www.w3.org/Graphics/SVG/1.1/DTD/svg11.dtd">
<!-- Generated by graphviz version 2.40.1 (20161225.0304)
 -->
<!-- Title: G Pages: 1 -->
<svg width="267pt" height="87pt"
 viewBox="0.00 0.00 266.63 86.80" xmlns="http://www.w3.org/2000/svg" xmlns:xlink="http://www.w3.org/1999/xlink">
<g id="graph0" class="graph" transform="scale(1 1) rotate(0) translate(4 82.8)">
<title>G</title>
<polygon fill="#ffffff" stroke="transparent" points="-4,4 -4,-82.8 262.6326,-82.8 262.6326,4 -4,4"/>
<!-- 0 -->
<g id="node1" class="node">
<title>0</title>
<ellipse fill="none" stroke="#000000" cx="27" cy="-22" rx="27" ry="18"/>
<text text-anchor="middle" x="27" y="-17.8" font-family="Times,serif" font-size="14.00" fill="#000000">0</text>
</g>
<!-- 1 -->
<g id="node2" class="node">
<title>1</title>
<ellipse fill="none" stroke="#000000" cx="201.0884" cy="-22" rx="27" ry="18"/>
<ellipse fill="none" stroke="#000000" cx="201.0884" cy="-22" rx="31" ry="22"/>
<text text-anchor="middle" x="201.0884" y="-17.8" font-family="Times,serif" font-size="14.00" fill="#000000">1</text>
</g>
<!-- 0&#45;&gt;1 -->
<g id="edge1" class="edge">
<title>0&#45;&gt;1</title>
<path fill="none" stroke="#000000" d="M54.2013,-22C82.5047,-22 127.1692,-22 159.8215,-22"/>
<polygon fill="#000000" stroke="#000000" points="159.9649,-25.5001 169.9649,-22 159.9648,-18.5001 159.9649,-25.5001"/>
<text text-anchor="middle" x="112.0442" y="-26.2" font-family="Times,serif" font-size="14.00" fill="#000000">a,...,z,A,...,Z,_</text>
</g>
<!-- 1&#45;&gt;1 -->
<g id="edge2" class="edge">
<title>1&#45;&gt;1</title>
<path fill="none" stroke="#000000" d="M185.378,-41.3443C182.4453,-52.0977 187.6822,-62 201.0884,-62 209.8863,-62 215.1658,-57.7354 216.9271,-51.7644"/>
<polygon fill="#000000" stroke="#000000" points="220.4218,-51.3005 216.7988,-41.3443 213.4223,-51.3867 220.4218,-51.3005"/>
<text text-anchor="middle" x="201.0884" y="-66.2" font-family="Times,serif" font-size="14.00" fill="#000000">a,...,z,A,...,Z,0,...,9,_</text>
</g>
</g>
</svg>
