<?xml version="1.0" encoding="UTF-8" standalone="no"?>
<!DOCTYPE svg PUBLIC "-//W3C//DTD SVG 1.1//EN"
 "http://www.w3.org/Graphics/SVG/1.1/DTD/svg11.dtd">
<!-- Generated by graphviz version 2.40.1 (20161225.0304)
 -->
<!-- Title: G Pages: 1 -->
<svg width="185pt" height="87pt"
 viewBox="0.00 0.00 184.50 86.80" xmlns="http://www.w3.org/2000/svg" xmlns:xlink="http://www.w3.org/1999/xlink">
<g id="graph0" class="graph" transform="scale(1 1) rotate(0) translate(4 82.8)">
<title>G</title>
<polygon fill="#ffffff" stroke="transparent" points="-4,4 -4,-82.8 180.5,-82.8 180.5,4 -4,4"/>
<!-- 0 -->
<g id="node1" class="node">
<title>0</title>
<ellipse fill="none" stroke="#000000" cx="27" cy="-22" rx="27" ry="18"/>
<text text-anchor="middle" x="27" y="-17.8" font-family="Times,serif" font-size="14.00" fill="#000000">0</text>
</g>
<!-- 1 -->
<g id="node2" class="node">
<title>1</title>
<ellipse fill="none" stroke="#000000" cx="145.5" cy="-22" rx="27" ry="18"/>
<ellipse fill="none" stroke="#000000" cx="145.5" cy="-22" rx="31" ry="22"/>
<text text-anchor="middle" x="145.5" y="-17.8" font-family="Times,serif" font-size="14.00" fill="#000000">1</text>
</g>
<!-- 0&#45;&gt;1 -->
<g id="edge1" class="edge">
<title>0&#45;&gt;1</title>
<path fill="none" stroke="#000000" d="M54.1863,-22C69.0119,-22 87.6703,-22 104.2507,-22"/>
<polygon fill="#000000" stroke="#000000" points="104.253,-25.5001 114.2529,-22 104.2529,-18.5001 104.253,-25.5001"/>
<text text-anchor="middle" x="84.25" y="-26.2" font-family="Times,serif" font-size="14.00" fill="#000000">1...9</text>
</g>
<!-- 1&#45;&gt;1 -->
<g id="edge2" class="edge">
<title>1&#45;&gt;1</title>
<path fill="none" stroke="#000000" d="M134.5247,-42.9908C133.1697,-53.0872 136.8281,-62 145.5,-62 151.0554,-62 154.5533,-58.3422 155.9937,-53.0587"/>
<polygon fill="#000000" stroke="#000000" points="159.4934,-53.1466 156.4753,-42.9908 152.5014,-52.8121 159.4934,-53.1466"/>
<text text-anchor="middle" x="145.5" y="-66.2" font-family="Times,serif" font-size="14.00" fill="#000000">0...9</text>
</g>
</g>
</svg>
